<?xml version="1.0" encoding="UTF-8"?>
<svg id="Layer_1" xmlns="http://www.w3.org/2000/svg" version="1.1" viewBox="0 0 375 375">
  <!-- Generator: Adobe Illustrator 29.6.1, SVG Export Plug-In . SVG Version: 2.1.1 Build 9)  -->
  <defs>
    <style>
      .st0 {
        fill: #243e5e;
      }

      .st1 {
        fill: #8ca5b7;
      }

      .st2 {
        fill: #7190a6;
      }
    </style>
  </defs>
  <path class="st2" d="M298.7,107.8c-2.1-1.4-6.7-4.3-8.7-5.1s-1.2-.1-1.7-.1c-.4,1,3.2.8,1.5,2.2s-2.2-.1-3,0c.4.9,2.8,2.5,3.6,2.8,1.2.5,5.2.8,5.3,1,.3.3,0,2,.4,2.9s1.7.9,2.3,1.5c1.9,1.9.4,3.2,4.8,1.1-2.2-1.6-3.2-4.4-4.5-6.4,14.1,9,17.3,36.3,15.7,51.6-1.1-.1-2,.4-3,.7s-1-.3-1.3.1-.2,2-.9,2.5c-2.8,2.3-3.2-3.1-3.8-4.9.8,0,2.3.2,2.8-.2s3.4-5.9,3.7-7.1c1-3.9.9-13.2-.6-16.9s-1.4-.5-1.5-.5c-.1-.1.3-1.5-.5-1.5s-1.6.6-2.2.5c-4.1-.3-5.5-1.3-9.5,1.1s-4.2,4.1-5.5,4.3-4.2-4-6.2-3.6c-1,3.7,2.9,3.2,3,6.4s-1.6,3.2-1.5,5.2l3-.4c0,.4,0,2.2,0,2.2.7.7,7.2-1.6,5.2-4.5,0,0,1.2-1.4,1.5-.8.7,1.4-1.6,2.9,3.7,2.3l-.7,3h4.5c.6-1.9-3.1-5.8-2.9-7s3.2-3.6,3.7-3.9c.8-.4,2.2,0,3,.4,5.4,2.5.2,6.9,0,9.4s2,5.8-1,5.5-3.6-2.3-5.7-1.4c-.4,2.4,2.6,3.8,3.4,5.3s.2,1.6.4,2.2c-2.3-.3-1.3-1-2.6-2.3s-5.3-5.7-6-6c-1.8-.8-1,3.2-1.1,3.7-3.5-1.5-4,0-3.8,3.4s1.2,2.9,1.3,3.8-.6,2.1-.4,3.4c.4,2.7,2.1,6.5,2,9.2s-2.2,2.3,0,7.5-.8,2.6,1.6,1c0,0,.8.5.6,1.6-.5,2.9-3,7.2-2.9,10.7l3-.4c-3.1,9.9-6.9,17.1-11.7,25.7-3.9,6.9-.9,6,2.6.8,8.1-12.3,15.4-30.4,21-44.2.5-1.2,1.4-4.4,3.1-4-6.8,32-30.4,69.1-50.9,94.3-.2-1.5.4-2.5,1.2-3.7s2.9-2.8,3-4.5c-2.5,3.2-5.2,5.5-7.1,9s-.5,1-.7,1.5-.6.4-.7.7c-.7.6-3.6,1.3-3.4,3.7.6-1.3,2.8-1.2,3.2-1.6s0-1.7.1-2.1c.3-.2.5-.6.7-.7.6-.5.7-1.5.7-1.5.4-.2,1.6.1,2.2,0-3,3.6-4.4,6.1-8.2,9.7,0-1.1.4-3.2-1.5-1.9s-7.3,7-9,9-2.1,2.2-1.9,3.4c1.1-1.3,2.9-1.6,4.1-2.2,1.7-3.3,2-2,3-3s.9-1,2.2-2.2c.4,2.1-1.9,1.9-2.2,2.2-1,1,.3,1.2-3,3-2.5,4.7-4.2,4.2-6.7,6.7s-1.1,1.1-1.5,1.5c-10.1,10.4-20,22.7-33.2,30.1-6.5,3.7-10.1,4.4-17.2,1.9-15-5.2-43.7-26.3-54.8-38s-1.9-1.5-1.9-3c12,10.7,32,26.4,45.9,33.8,2.7,1.5,13,5.5,15.9,5.8,6.3.6,8.8-1.1,13.6-4.3,10.8-7.2,22.2-17.7,31.6-26.4s1.4-1.4,1.5-1.5c.3-.3,1.6-3.8-.4-3-4.6,4.6-9.2,9.3-14.2,13.5s-21.7,17.5-27.1,18.6-12.4-1.4-17.5-3.9c-16.3-8.1-37.9-25.2-51.6-37.4-1.7-1.5-6.6-7.3-7.9-7.9s-1.5.2-1.1,1.1c.8,1.9,8.3,7.8,10.3,9.6s.1,1.2.2,1.3c-1.7.3-2.3-.6-3.4-1.5-26.1-21.1-52.7-63.4-63.2-95.1,3.2,1.8,5.8,2.3,6-2.2l-7.5-.8c-3.4-11.9-4.5-21.3-3-33.7,2,4.5,0,10.7.8,15.3s1.2,1.9,1.4,3.1c.5,2.7-1.4,4.8,2.3,5.6.8-1-1.6-7.3,1.5-6.7v-.7c-1.3.8-3.1-4.8-3.1-5.6,0-1.7,1.4-2.5,1.6-3.8s-.6-1.9-.5-2.8c.4-4.2,1.1-8.5,1.2-12.7.3-1.4,8.7-2.6,3.9-5.6-2.6-1.6-2.8-1-3.9-4.7.3-.7.2-1.8.7-3h1.5c-1,2.9,1.5,3.1,2,4s-.6,1.9,1.3,2c2.7.2,4.7-.5,4.9-3.5s-1.6-2.4-3.7-2.6c-.3-2,1.9-2,2.6-3,1.1-1.8.2-4.5,3.2-5.8s3.3.8,2.4-2.7-1.5-.5-1.5-.9c-.5-3.1,4.8-4.3,7.2-4.2s3.1,2,5.1,1.6,1.8-2,5.4-2.3,8.2,1.2,10.1-1.5c5.7.8,12.5,1.3,18.3,1.5s2.4,1.5,6.2-1.3,2.2.4,1.6-2.5c2.4-.6,7-2.3,9.2-3.8s.6-1.2.7-1.3c3-1.5,1.6,1.4,2.2,3s5.8,4.1,8.1,3.5l-2.3.7c.7,3.6,5.7,2.1,9,3.3s2.9,3.3,3.5,3.4c1.4.3,3.4-.3,5,0s.5,1.2,1.4,1.7,2.9.9,4.3,1.3l-5.2,7.5c5.9-.4,7.9.8,8.3-5.6s.6-3.1-1.5-2.6c.1-.1-.4-1.3.5-1.5,4.9-1.2,2.6,2.2,3.3,3s2.7-.6,2.8,2.1-1.4,2.1-1.4,4.3,1.9-.2,2.5-.5c6.7-2.5,11-.9,17.8-5.4s2-.3,2.2-.4-.8-1.2-.4-2.2c.7-1.5,8.1-5.1,10-5.8s5.4.4,5.4-2.5h.7c-.5.5,2.9,3.1,3.2,3.2,1.8.7,3.8-.2,4.3,2.4s-2.5,0-.8,2.6c-.6.6-7-1.5-8.6-1.5s-7.5.9-7.9,1.1c-1.2.7-.7,2.4,0,3.4-.8.4-2.4.6-2.2,1.5,3.6,1.2,3.9.5,4.5,3.8-2.2,0-1-2.2-4.1-1.5s-.4,2.5-.4,2.7c.5,2.1-.8,4.4-.6,5.8s2.8,3.1,2.8,4.6-1.6,2-2.1,3.1-.6,3.1-1.1,3.8-2.6,1.2-2.8.9,0-1.4-.4-2.2-1.4-1.3-1.7-2.1c-.4-1.4.2-4-.2-4.6s-2.3-.5-2.9-.8c-1.2-.7-5.1-3.6-6-4.5s0-1.2-.7-1.8-3.9-1.7-4.3-1.8c-.9-.1-8.7,3.4-9,3.8s-.1,1.5-.1,2.1c-4.6-2.9-3.4,3,0,3.7-.3,1.3-.1,5.1,0,6.7-2.5-.8-3.5,1.9-4.3,2.2s-7.6,2.4-8,2.3-.4-1.6-.8-1.6c-1.7,0-4.7,2.1-7.3,1.6s-3.3-3.3-3.4-3.5c-.8-2.6,1.5-5.8-3.5-5.5s-3,1.9-4.9,1.5c.2-1.9,4.8-2.8,5.1-3.1s.3-4.1.9-5.1c-1.5-.4-2,1.5-3.4,1.5s-4.6-1.5-4.8-1.6,0-4-1.6-2.1-.2,11.6-.7,13.5c.9-.7,5-1.1,5.2-.8.4.7-1.1,3,1.5,3.4l-1.5,1.1c1.3,0,3.9-.4,4.5,1.1.9,2.2-1.7,1.4-1.4,2.9s1.4,3.3,2.9,3.9c-2.2.6-8-2.7-9.4-.4s0,2.1-.8,3.1c-1.8,2-3.8.5-4,.7-.3.3,1.2,8,1.5,8.2s2.5-1.3,2.9.4c.8,3.1-3.8,5.5,3.8,5.6,1,2-4.5,3.2-3,4.5s3.5-1.6,4-2c.8-.6,2.2-.2,2.7-1.4.8-2.2,0-3-2.2-2.6-.2-1.7,1.7-2.2,1.6-4.1s-5.7-2.2-3.8-4.2,5.9,2.5,5.9-1.1-.9-1.4-.3-1.9c5.5,3.1,8.7-4.2,1.9-2.3,0-3.8,3.3-1.4,4.8-1.7s1.3-1.7,2.7-1.3c-1.1,1.8-.5,4-1.3,5.8s-3.6,2.1-2.4,3.2,5.1-1.1,5.6-2.2l1.9,3.7c-.2-1.7.3-4,0-5.6s-3.7.2-1.9-1.9,2.2-2.2,2.4-2.2c2.9-.7,2.4,1.3,3,1.5,4.6,1.1,2.8-1.7,3.3-2.2s3.2-.2,3.6,0c1.8,1.3-1.8,5.5,2.4,4.4-2.7,4.5,1.6,3.7,2.6,6s-.9,2.7-.1,3.8,4.4,1.7,5.7,4,.5,2.9.8,3.3c.8.9,4.1-.5,2.1,3.9,2.4-.9,2.8,1.9,2.9,4.2s-2.3-.1-1.4,1.8l3-.4c-2.8,2.5-.2,3.4,0,5.3s-.2,5.3-.3,5.6c-1.5,2.2-6.4-1.5-8.7-.8-.3,1.1,4.6.8,2.2,2.2s-4.5-.7-1.1,3.7,2.3-.9,3.9-1.3c5.3-1.6,4.5,2.2,5.6,3.4s1.6-.5,3.8,2.6c3.3,4.6,1.2-2.3,1.2-3.5s4.5-4.2.8-4.1c.1,0,2.2-2.1,2.2-2.2l3,.7c-1.9-.6-1.8,2-1.5,2.3s5.4.1,6.2-.1c1.7-.5,3.2-2.8.5-3.2,3.2-2.6,5-4,4.5-8.6l-4.5.7c.1-1.9.6-7.8,2.7-8.2s1.9,1.9,3.3,1.5c-1.7-5.9,10.5-8.1,3.7-13.5,3-1,6-1.9,9-3-.9,3.4-.2,9.9,4.5,9l-1.5,2.2c3.3,1.2,3.6-2.4,5-2.9,2.9-1,9.6.4,13.3-2.3s-.4-5,4.2-3.8l-.7,2.2,3-.7c0,.5,0,1,0,1.5-4.2.5-3.9,5.6,0,6,0-1.5,0-3,0-4.5.9-.4,2.1.8,2.2,1.5.3,1.1-.9,3.3,1.1,3,1.9-1,5.1-4,.4-3.7.2-.3,0-1,.4-1.5,1.8-2.3,4-.7,6.3-.8-.7-4.3-.9-2.5-3.4-2.4s-1-.6-1.1-.6c0-.5,0-1,0-1.5,1.8,0,9.5-.5,10.1-1.5,1.9-2.7-1.2-2.5-3.4-2.3.3-1.5,1.9-.5,2.3-2.6.6-3.3-1.3-2.5-1.5-2.7-1.4-1.9,5.2-4.2,6.6-2.8s-1.9,1.5,3.6,2.8,2.9-.7,2.5,1.6c-.2,0-3.2,2.1-3.4,2.3-.4.5-.3,1.4-.4,1.5-.9.8-2,.9-2.6,1.5-2.2,2-1.6,4-6.3,3,1.6,3.7,5,1.7,8.2,1.5-.2,3.2-5.2,2.6-6.7,4.9s-.9,3.7-.8,5.5c-.8,0-1.7,0-2.6,0-1.8,2,.8,2.2,1.1,2.8,1.2,2.1-.5,2.8,2.4,3.3s-1.1,2-1.3,2.2c-1.3,1.4-1.4,3.4-3.7,3.1s-3.7-3.3-4.9-3.8c0,1.5-1.4,2.7-1.5,4.2s.8,2.1.8,2.9-1.4.4-1.6.9c-1.2,5,5.5,2.4,6,1.8s-1.1-3.3-.7-4.5c4.8,1.2,7-2.5,11.2-3,.7-2.4-1.8-1.1-2.2-1.5s0-6.6-1.6-8.2c.2,0,3.6-1.4,3.7-1.5.2-.2-2.3-3.7,3-2.9.2.2-2.1,3.4.4,3s2-2.8,2.6-3.8,2.6,1.1,3,.8,1.2-5.7,1.5-6.7c-1.6.4-2.9.6-4.5.7,0-1,0-2,0-3,2.1.9,2.2-1.3,2.8-1.5,3.3-.8,7.3.9,7-4.5-3.1-.5-4.8.4-7.5,1.5-.2-.6.2-1.9,0-2.2l4.1-3.7.4-3c-2,1.2-6.4,2.3-8.7,2.2s-4.3-4.7-8.1-3.7-.1,2.1-1.6,1.5-3.8-6.6-4.6-6.8-6.9,1.8-7.6,2c-1.2.5-.9,1.7-1.7,2.5-.4-.8-1.9-1.5-1.5-3,5.7-.8,3.5-2.6,4.8-5.3s2-1.1,2.4-1.7c3.2-4.2,11.5-19.7,12.6-24.5s-.6-3.1-.1-3.8c1-1.3,3.7-.4,4.2-.7s0-2.2,0-2.2c-.5-.4-4.1,1.1-3-1.9s6.9.8,9.2.2,3.3-3.4,3.4-4c.6-2.8-4-1.3-5-1.3s-.9-.5-.9-.5l1.5-2.2c-1.6-.5-3.4.5-4.4,1.6s.6.5.6.6c0,.5,0,1,0,1.5-1,.2-4,1.3-4.5.8-1.9-1.9,3-3.2,3-3.4.3-1.4-.3-3.3,0-4.8-6.7,2-14.1-2.5-20.8,1.3s-2.2,3-2.9,3.1c-1.4.3-3.6-2.9-5.5-2.2-.3,1.2.4,1.8.7,2.7,2.4,6.2,3.9,1.6,9,1.1.3,1.6-.8,1.7-2.2,1.5-.6,2.4,2,1.3,4.1,1.5s1,.7,1.1.7c-1.8,1.8-5.7,2.1-7.5,3,.5-2.1-2.1-2.2-3.7-2.2.2,2-.9,4.3,1.5,3.7-5.7,5.1-5.3,5.9-13.5,8.2.3-1.3-.8-3-.6-4s1.8-2,1.3-2.7-1.4-.2-2-.6c-1.9-1.3-2.8-2.9-5.5-2.4l1.5-3-13.5,3.7c-2-4.7.6-4.2,3-6-.4,5.7,4.9-1.1,6.5-1.3,4.4-.8,6.2,3.1,6.2-3.9-1.6-.1-3,.3-4.5.7-.4-2,1-1.5,2.2-1.9,2.5-.6,5.1-.8,7.5-1.9v2.2c-.3.3-3-2.3-2.1,1,1.8,5.9,5.1,1.4,7.8,0s6.6-.7,4.8-6.1l1.9,1.5c1.1-3.6,5.3-.4,7.7-.2s2-.5,2.8-.4c2.1.2,4.1,1,6.4.6,0-4.5-9.1,0-8.2-5.2,14.3,1.4,30.7,7.2,38.9,19.5ZM247.8,110c-1.1-.5-2,.5-1.5.7,1.1.5,2-.5,1.5-.7ZM105.6,120.5c3-.5,6.9-1.6,6-5.2-2.9,1-5.5,1.7-6,5.2ZM305.4,119.8c-.2-.3.5-2.6-.7-3.4-3.3-2.2-16.5,4.3-17.7,8.7-3.5-.6-5.7-6.6-9.3-4.9-5.1,2.5,3.3,3.8,4.3,5.1,1.4,1.9.7,7.7,1,8s1.8.3,2.3-.4,1.2-5.1,1.6-5.4,6.9-1.4,8.7-2.2,4.2-3.1,6.9-3.2c-1.5,3.8-6.2,3.4-7.5,7.5,1.7-.2,3.9.4,5.5,0s1.7-2.6,4.5-2.1,2.1,3.2,4.2,2.8c.7-.8-1.6-9.9-2.3-10.4s-1.3,0-1.4,0ZM99.6,136.2c1.7-.2,3.6.3,4.4-2,1.3-3.5-3.6-.1-2.9-3.3,2.9.5,2.5-3,5.2-2.3,0-1.2-1.9-1.2-2.2-1.6-.4-.6,1.1-2.6.7-3.6-2,2-1.7,3.7-5,4.3s-3.2-1-5.1-1.3-5.5.2-6.1.9c-1.1,1.2.1,3.8-4.7,2.8v-3c4.1.6,7.4-2.6,11.2-4.1.4-2-1.9-.6-3-1.4s-.5-2.4-.7-2.6c-.4-.4-7.9,1.7-8.5,2.1-.8.6-.2,2.2-.8,3.1s-2.6.7-3.1,1.5.5,1.8.3,2.2-1.9-.2-1.3,1.2,4.8.5,3.7,2.2-1.7,1-2.2,1.5c-1.5,2-1.4,2.2-3.4,4.1-3.9,3.7,2.4,1,4.8,1.5,0,3.9,4.5,5.3,7.8,4.5s.4-1.5.5-1.5c2.2-1.4,10.1,2.6,10.5-5.2ZM104.1,119c-2.1-1.5-7.7,4.4-6.7,5.2,4.6.8,3.4-1.1,4.7-2.8s2.5-.6,2-2.5ZM112.9,120.7c-2.6-1.5-6.8,3.6-5.8,5,2.1,2.6,10.7-2.6,8.2-3.7s-1.2.2-2-.3-.3-.9-.5-1ZM124.3,124.3c.3-5.9-4.9,1.3-6.7,1.5-.8,2.6,2.1,1,3,1.5s.2,1.6,1.1,2.3c1.8,1.5,3.6-.3,5.5-.6s3.2,0,4.7-.5,6.6-4.8,5.9-5.6c-5.4-3.7-8.6-1.8-13.5,1.5ZM271.8,124.3v-2.3c-4.3,4.2-2.2,6.7,3.4,6s.8-6.3-3.4-3.8ZM292,134.7c.5-2.8-1.6-5.5-4.5-5.2v2.9c0,0,4.5,2.3,4.5,2.3ZM108.5,138.4c.8-1.9-.2-7.8-2.9-5.9s-1.6,5.1-2.3,6c1.8.7,3.3.5,5.2,0ZM154.2,134c-3.6-2.2-6.2,4.6-5.2,5.2s1.7-.2,2.4,0,.6,1.2,1.1,1.5c1.9,1.2,4.1-.4,6.2,0-1.3-1.7-.2-4.5-1.1-6s-2.5-.9-2.6-.7c-.4.6,1,2.8-1.5,2.2l.7-2.2ZM116.1,140.7c.2-.2-.2-5-.3-5.2-2-3.2-5.1,2.3-2.3,4.5s2.3,1.1,2.7.7ZM270.3,142.2c.2-2.8,1.1-3.5,3-5.2-1.4-.3-2.7,1-4,.6s-1.7-2.2-3.1-2.2c-2.4,0-5.4,6.6-4.9,9,4.5.9,2.4-2,3.8-5.2,1.2-.8,3.8,1.4,3.7,3-.6,0-1.6-.3-2.1.1s-1.2,3.2-.9,3.6c1.1,1.6,10.4,2.1,11.8,0,2.6-3.9-5.2-3.6-7.4-3.6ZM121.3,138.5l-3.6,2.8-.9,7.7c1-1.4,4.1-1.3,4.6-1.9,1.3-1.8-.2-6.4,0-8.5ZM105.4,149.9c-2.2-1.8-9.6.6-8.1,4.3,1.6-.3,7.3.5,8.1,0s.8-3.5,0-4.2ZM128.8,153.5c-2.8,0-4.4-2.7-6.7-3.7-.7,6.8,2.1,10.4,6.7,3.7ZM94.4,169.2c1.1,4,2.5.6,5.2,2.2.3-.4-.6-6-.9-6.9-.6-1.5-2.5-2.3-2.7-3.3-.5-1.8,4.7-6.2-3.1-6.2-.4,2.7,1.5,5.4,1.6,7.9s-2.4,1.1-1.6,3.3c-2.6-.1-7.4.5-9.7,1.5-3.2-5.7-1.5-6.5-8.2-5.2,1.3-1.9,5.1-5.3,1.1-6s-10.2,2.4-11.6,6.7c3.1,0,5.2.5,8.2,0-1.6,3.3,0,2.5.5,3.3s.2,1.1.3,1.2c-3.6-.3.4,5.2.5,6.5.2,1.8-2.3,4.7,1.7,4,0,1.4.9,2.9.8,4.1s-1.3.3-1.6.4c-1.7-2.3-12.7-5.9-14.2-3.7,0,.8.3,1.9.7,2.5.9,1.3,10.6,3.8,12.8,2.8-.2.4-.2,1.1-.7,1.9-1.8,2.5-6.2,4.7-9,6l10.5,20.2c3.6,1.6-1.3-4.5.8-6.4s1.4.7,1.5.7c-2.1,3.5,2.3,4.5.7,8.2s-.7,0-.8,1.1.7-.3.8-.4c2.1-.6,1.2,5.3,1.5,6.3s1.5.4,1.5.5c.2.2-2.4,1.8,3,2.2v-3c.2,0,.5-1,1.3-1.3,6.1-2.5,3.6,1,4.9,2.6s1.2.1,1.3.2c.3.4-1.1,2.7-.7,3s4.1-1.3,5.2-1.5c0,1.5-1.8,4.1.4,3.7l6.4-4.5c-2.1,0-4.7.3-6.7.7,0-1.1-.4-1.9-1.5-2.2,2-.8,8.7-3.9,10.4-4.9s3.2-4.2,6-4.1c2.6,5.6-2.3,4-3.8,5.7s-.6,4-.7,4.7-1.5.7-1.5,1.2c0,.8,1.2,2.5.7,3.2s-9.1,3.6-10.3,5.1l-6.1,1.3c3.6,4.6,3.6,1.9,6.6.6,5.2-2.2,8.4-1.8,12.9-6.2-.4,1-.3,2.7-1,3.5s-2.5.6-2,2.4c5.8-1,2.9,1.9,3.7,3s5.8-.3,6.6-.9c1.5-1.2,1.4-6.8,1.8-7.3s1.2,0,1.4,0l-.7,8.6c-2.6,1-3.8,3-7.1,2.7s-3.9-1.3-4.4-1.5c-1.4-.8-.9-3.6-3.2-3.7-3.5-.1-2,3.6-4.9,3.7l4.2,2.2c3.8-1.3,5.4.3,8.2.7s7.4-1.6,8.4-3.2,0-1.9.6-2.8c1.2-2,9.4-4.3,4.1-7.1.9-1.4,2.9-1.1,4-1.8s.9-2.1,2-2.7,8.5-1.7,8.9-2,0-2.4,1.3-2.8,3.1.7,4.3.5c2.4-.4,4.6-5.4,8-4.3-5.2-4.1.9-6.5,1.4-8.7s-.6-2-.5-2.8c.2-1.2,2.5-1.7,2.1-3.5h-4.5c.6-2,.6-3.3.7-5.2.7-9.1-.9-4.3-3-6.1s.9-2.5-1.1-2.2c-3.1.5-1.3,3-2,4.3s-4.2,1.9-3.6,4.6c-.1,0-.7.6-1.5.7.8-3.7-2.4-6.8-6-6l1.5,2.2c-1.7-.7-4.3,2-4.9,2s-1.1-1.1-2.1-1.1-2.2,1.1-3.3,1.2-3.8-1.1-4.6-.5-.4,2.7-1.6,3.3-4,0-4.5.4,1.3,3.1-3,2.2c.8-8.5-8.2-5.3-3.7.7-2.9-1-2.9,1.3-3.9,1.7-2.4,1-4.1-.5-4.3,3.5-1.6.6-3-1.6-4-1.4s-1.9,1.8-3.2,2c-2.1.2-5.1-4.6-8.8-4.4s-.3,1.7-.8,1.5c-1.7-.4-2.6-2.9-3.2-3-4.3-1.1-9,2.5-9.1-4.9s3.2-2.3,6.6-4.4,1-5.2,1.5-5.6,2.5.2,3-1.2-2.5-5-2.2-7c2.6,1.5,4.4-.7,5.6-.8s1.7,1.5,3,1.5.2-1.3.9-1.5c2.2-.6,2.9,1.4,2.5-3l4.5.7-3-4.5c0,0,.7-2.1.7-2.2ZM110.1,156.5c-.2-.2-4.5-.9-4.8-.8-.5,0-.3,1.5-.9,1.5s-5.9-1-4,1.5,5.6.6,5.9.9,0,1.3.3,1.8,4.5,2.9,2.2,3.3-1.6-.3-1.7.4c-.4,2.2.3,4.9.8,7.1.5.4,3.8-3,4.5-2.2s.4,2.1-.6,2.2c-1.6.2-2.5-.3-1.5,2.5s1.4,1.3,1.4,2.4-1.6.3-1.6.8c0,1.8,2.9,6.2,5.3,5.6.3-1.2-1-.3-1.5-1.3-1.8-4.1.3-3.4.9-5s.2-2.7-.1-4.2c2.2-.6,2.9,2,3.8,2.5,1.6,1,5.1.7,5.2,3.4,1.2.2.8-1,.8-1.9,0-5.1-.8-4.2-5.3-3.4.3-5.1,2.8-9.6-.5-14.1s-3.1-1.3-2.5-3.8c-1.7-.3-1.8.3-1.5,1.9.5,2.3,3.2,2.7,3,4.9l-1.5.4,1.5,1.9c-3.5.7-3.6-1.5-5.2-3.4s-1.9-1-2.1-1.2c-.6-1,.2-3.3-.2-3.6ZM236.6,179.6l1.9-3-4.1,3c-1.7-.1-3.5,0-5.2,0v6c.2.2,5.1-1.3,6-1.5-.3,2.9,2.6,1.8,4.5,1.5-.3,2.3-1.5,7.1,1.5,6.7v-3c4-.2,4.6,1,2.2,3.9s-1.4.5-1.4.6c-.5.8.8,2.5,1.8,2.2s1-2.2,1.6-3,1.8-.7,1.8-1.2c0-1.6-1.4-3.3,0-5.5h-3s1.5-5.2,1.5-5.2c-.8.1-4.3.6-4.5.7-.3.3,1.2,3.3.8,3.7s-1.6,0-2.2,0c0-.6.9-1.4.8-2.5s-1.4-.3-1.6-.5-.7-2.5-2.2-3ZM253,178.9c-6.2-.7-5.3,4,0,.7v-.7ZM291.8,181.3c-.6-.6-4.4-1-5.5-1-2,0-7.6,2.5-9,3.8s-1.9,6-4.9,7.1c1.1.2,2-.5,3.3-.4s2.7,1,4.1.8c.3-.3-2.8-4.6-.3-5.3s9.2.7,13-.7c.2-.1-.5-3.9-.9-4.3ZM256,183.4c-.8-.8-7.3,3.4-7.9,4.5-.9,1.8,0,5.3,2.9,4.5s3.4-5.3,4.2-.8c3.1-1.2.1-2.5,0-4.1s1.1-2.7.7-4.2ZM245.6,211.8c1.2-3.6-2.7-4-3-4.5-1.1-1.5,1.2-1.6,1.9-2.2,1.8-1.6.8-2.6.4-4.5-3.6,1.7-5.8,2.9-9.9,1.3s-2.4-3.9-4-5c-2.3-1.6-5.9-1.2-8.6-.8-1.3,2.1,5,2.1,3,3.7s-3-.5-4-.5c-4.1.2-.4,3.8-1.2,5s-4.5.6-5.5.9-4.2,4.2-2.4,4.4,5.8-3.2,6.4-.4-4.5.7-3.7,3.4c2.1-.7,2.1,1.5,3.3,1.6,3.9.3,6.4-1.4,6.1-5.6s-3.9-.9-2.4-3.5c1.6,1.1,5.9.2,6.8,1.5s-.3,2.3-.3,3.4.6,1.6.6,2.2-3,.6-1.5,1.9,4.1-1.3,5.2-.7c.3-.2-2.5-6.9,3.4-3.7-1.2,2.2.6,4.5,1.8,3s-.2-3.5,0-4.5c.6-.7,4.7,2.2,4.5,3.7-6,1.6-12.5,4.1-18.7,5.6s-10.2,3.1-14.2,3.4c-.7-2.5,2.6-3.6,2.8-5,.6-3.6-2.4-6.6-2.8-1-1.9.8-1.2-1.5-1.9-1.5-1.5,0-3.6.7-5.5,0-.6,2.3,1.5,1.1,2.6,2.2s2.1,3.9,2.6,5.3c-6.2-.6-2.1-1.8-3.3-3.7s-6.6-3.9-7.2-4.1c-1-.4-2.1.5-2.2.4-.2-.4.4-1.7-.4-2.3-4-2.9-10.5.4-6.2,6.4s1.9,1.1,2.1,1.3c.7.9-.7,2-.7,2.1-2.3,1.3-3.6-2.6-5.2-1.5s-.8,2.3-.8,2.5c0,.5,1.4.3,1.5.9s.1,4.4,0,4.7-8.4,1.2-2.9,2.7,1.9-.6,2.5-.9c.9-.4,1.9-.2,2.8-.7s.5-2.4,2.3-1.8c-.4,3-.8,4.8-3.4,6.7s-2.8.8-5.2,1-5.7,5.9-3.1,7.2l12-7.5c.3.8-.9,3.1-.4,3.7,1.1,1.3,2.7-3.6,4.4-3.1-2.1-4.9,2-3.3,2.3-6.3s-2.1-.4-2.3-1.6-.6-4-.7-5.3c-.3-5.6,5.2,0,6.7.8,2.9,1.4,3.4-1.1,2.9,4.9-.1,0-.5,1-1.2,1.4l-4.8,2.4c1.7,0,3.3,2.3,4.8,2.3s2-3.6,3.8-3.8l-1.1,3c5.4-.6,10.8-.7,5.2-6.7,1.8-1.3,2.4-3.6,6-4.5-.9,1.2.2,3.7-.3,4.5s-3.1,1-2.6,3c1,.2,6.5-.5,6.7-.7.5-.5-1-3-.7-4s3.1-.9,2.2-3.5c.9-.2,5.5-2.1,6-1.5-.9,2.1,1.1,4.4,2.2,3s-.5-3.6,0-4.4,9.8-1.6,11.5-3.1c4.6,1.1,10.4.3,15.1-.6s2-.7,1.7.9c-3.1,1.6-6.5,4.1-9.7,5.2s-6.1.2-9.7,1.6-9.5,2.9-13,5.7-5.1,4.7-7.3,8.3-2.5.6-1.5,2,3.3.3,2.2,3.8c-2.4.6-1-1.6-1.6-2.1s-2.9,0-3.9-.8-1.1-4.3-3.1-3.8-3.4,5-4.3,5.8-7.9,5.3-8.4,5.5c-2.9,1-6.2.5-8.8,1.7s-3.2,3.5-4.3,2.8,0-1.7-1.2-2.1c-5.7-1.9-5,2.4-6.2,3.3s-5.1.5-5.3.3c-.4-.4.3-4.7.6-5.7s1.5-1,1.6-1.5.2-4.5,0-4.7c-1.1-1.2-2.1,2.6-4.1,2.2-1.5-.9-2.4-4.7-1-5.8s4.1,0,3.6-2.4c9-2.8-.2-6-4.9-6l2.6,6c-1,.3-2.3,1.8-4,1.6s-2-3.5-3.5-4.2c-4.5-2-5.3,1.9-4.1,5.6s4.5,8.7,4.9,8.9c-4.2,0,.6,5.3,2.2,1.5.9,2.4,0,2.5,0,4.8-.2,5.8.3,6.2,6,6.4-3.3,6.2,10,5.1,11.2,6s.3,4.2,3-.7,1.8-2,5.4-3,1.1-1.8,3-2.4,5,0,7.4-.8,3.6-2.7,2.8-.2-1.9,1.9-1.5,3.4c4.3-.7,6.3-1.3,10.2,1s.5,1.6,1.4,1.8c2.6.8,7.4-1.6,10-2.1.4-2.9-3-1.8-3.7-2.2s0-2.1,0-2.2,1.5,0,2.2-.4c2.6-1.7,5.1-4.1,7.9-5.6l.4-4.5c.3-.3,7,1.3,7.7,1.5s.5,1.2.7,1.3c1.4,1,3.7-2.6,4.6-3.3s1.7-.4,2.4-1,.8-1.8,1.6-2.3c2.5-1.6,9.9-2.2,13-1.4-.8-3.3,2.1-2,4.5-3-2.9,4.6-8.8,8.5-13.7,11.4-9.7,5.8-20.9,9.7-30.6,14.3-3.7,1.8-6.5,4.2-10.2,5.9-.2,2.6-.1,5.2-.1,7.7,0,5.1.5,10.4,0,15.6s-4.6,13.5-5.2,13.9c-1.2.9-2-1.1-2.1-2-.2-3,1.5-6.8,1.4-10.3s-2.2-10.9-3-15.7c.5-3.7,3.5-4,6.4-4.9s1.3.5,1.1-1.5c-2.4.8-2.3-1.4-3-1.9-1.7-1.1-5.1.8-7.2,1.1-6.1.8-14.5.9-20.3-1.3-2.7-1-4.4-3-7-3.9-1.5,3.9,4.7,6.8,5.2,8.8s-5,6.6,3.1,4.7l-1.5,6c6.2-.8,2.7,5.2,3.9,8.5s4.2,3.1,5.9,2.7l-1.5,3.7c3.9.8,2.9-1.4,4-2.7s1.6-.8,2.2-1.9c1.7-3.3-2.4-2.7-3-3.7s-.2-2.6-.9-3.8-3.9-2.1-4.4-4,1.4-3,1.3-4.2-1.8-2.4-1.4-3.9c10.6-2.2,9,1,13,7.6s1.6.6,1.9,1.5,1.3,11.1.9,11.5l-3.7-.7c-.8,3.6-1.2,8.2,3.7,7.5-2.1,4,1.8,7.7,5.6,5.1s1-1.7,1.7-2.2c2.5-1.7,6.7-.8,7.6-4.9s-1.4-.9-1.5-1.4c-.5-3.2,3.7-3.3,4.9-4.9s.5-4,3.4-4.9,9.7.6,5.6-4.1-2.9-.8-1.7-2.2,1.1,0,1.3-.1c.8-1-1.2-3.7-3.2-.6s-.6,2.6-1.1,3.2-1.6.4-2.3.9-1.1,3.6-2.7,1.1-.5-8.2-.4-10.2.9-3.4.8-4.4-4.1-.6-1.1-4.2,13.6-5.9,17.5-7.9c13.2-6.7,28.3-14.4,37.7-25.9,1.5-1.9,6.1-9.9,6.6-10.3s1.4,0,1.8-.3c1.1-.8.8-4.4,1.3-5.9.8-2.3,3.3-5.1,4-8.7s0-3.4-2.5-5,.1-1.4-2.9-1.2c-6.7.3-13.2,2.7-19.5,3.7s-6.5.3-9.3.8c.8-3.7-.8-3.4-2.2-4.9s.2-4.2-3.8-1.4c.7,2.5,2.2,4.2,1.5,7-.4,0-1.2.5-2.2.7ZM245.7,200.4c1.7,2.5,6.7.6,5.1-3.5-2.6,2-4.5,1.3-7.5.8-.2,1.4,1.5.3,2.1.9s0,1.5.3,1.9ZM172.2,207.3c3.4-2.5,7.7,3.2,9-1.1-4.6-1.8-8.8-7.2-9,1.1ZM190.2,205.1c-1.6-.9-5.4,2.9-4.5,3.7,1.4,1.3,4.4-2.4,4.5-3.7ZM181.9,219.3c.9-3.4-6.9-3.6-7.5-3s0,1.7.3,2.3c1,1.4,5.4.5,7.1.7ZM268.8,247.8c-1.1.4-5.2,2.5-5.6,3-.6.8-.7,2.5-1.5,3.7s-4.5,5.5-4.8,5.7c-1.4.7-7.6-3.3-4.9,1.1s10.9-2.3,13.1-5.1,3-4.7,3.8-8.4c.4-.2,1.4.3,2.1-.2.4-2,10.7-14.1,9.9-14.8-1.3-1.2-5.2,3.2-6,4.1-2.7,3.2-5.2,6.9-6,10.8ZM134,235c-.4-.3-7.2-.8-5.2,2.2.8.5,7-.6,5.2-2.2ZM202.1,261.2c-.8-.8-2.3.7-1.5,1.5s2.3-.7,1.5-1.5ZM169.8,262.1c-.6-.3-1.1-.1-1.7-.2-1.6,2.2,1.9,3.1,3.4,4.5.5-.5-1.2-4.1-1.6-4.3ZM229.8,269.5c-1.3-1.3-5.2,4.5-1.1,3s1.6-2.6,1.1-3ZM243.3,274.7c4,.7,5.4-2.8,1.1-3-1.2.8-1.3,1.6-1.1,3ZM192.4,303.9c-.5,0-9.1-.5-6.7,1.5.5,0,9.1.5,6.7-1.5Z"/>
  <path class="st2" d="M91.4,134.7c3.1,1.6,5.2-.7,8.2-.7,0,.7,0,1.5,0,2.2-1.5.2-3.5.4-5,.5s-2.3-.6-3.2-.5v-1.5Z"/>
  <path class="st1" d="M259.8,88.3c-.8,5.1,8.2.7,8.2,5.2-2.2.4-4.3-.4-6.4-.6s-1.8.5-2.8.4c-2.4-.3-6.5-3.4-7.7.2l-1.9-1.5c1.8,5.4-1.3,4.2-4.8,6.1s-6,6-7.8,0,1.8-.6,2.1-1v-2.2c-2.4,1.1-5,1.2-7.5,1.9s-2.6,0-2.2,1.9c-3.8,1.1-5.3,2.3-8.2,4.5-2.3,1.7-5,1.3-3,6l13.5-3.7-1.5,3c2.6-.5,3.6,1.2,5.5,2.4s2,.5,2,.6c.5.7-1.2,2-1.3,2.7-.2,1,.9,2.7.6,4-3.4,1-9.3,6.5-12.4,6.7-5.3.3-8.8-8.2-18.3-3.7-.7-1-1.3-2.7,0-3.4s6.9-1.1,7.9-1.1c1.6,0,8,2.1,8.6,1.5-1.7-2.6.8-2.3.8-2.6-.5-2.6-2.6-1.7-4.3-2.4s-3.6-2.7-3.2-3.2h-.7c0,2.9-3.6,1.8-5.4,2.5s-9.3,4.3-10,5.8.5,2.1.4,2.2c-.2.1-1.5,0-2.2.4-6.8,4.5-11.1,3-17.8,5.4s-2.5,3.6-2.5.5,1.4-3.3,1.4-4.3c0-2.7-2.5-1.8-2.8-2.1-.7-.8,1.6-4.2-3.3-3s-.4,1.4-.5,1.5-1.1.2-1.5.7c-1.4-.4-3-.7-4.3-1.3s-.9-1.6-1.4-1.7c-1.5-.3-3.6.4-5,0s-1.2-2.5-3.5-3.4c-3.3-1.3-8.3.2-9-3.3l2.3-.7c-2.3.6-7.4-1.3-8.1-3.5s.8-4.5-2.2-3-.3.9-.7,1.3c-2.2,1.4-6.8,3.2-9.2,3.8s-14.1,2.2-15.7,1.1c-3.5-2.2,3.4-2.3,3.8-2.6-1.9-4.1,1.4-3.6,4.3-5s1.5-1.1-.2-.9c-7.9.5-13.5,7.1-21.3,7.5,1.2-2.7,5.4-2.3,7.2-3.7s1.3-2.6,3.3-3.8,3.8-1.3,5.2-1.5c-.8-3.4-2.3-2-5.2-1.5s-3.3.3-4.3,1-2.4,3.6-4.3,4.3c-.8-.9,0-2.5-.7-3.8-1.5-2.5-2,.5-2.7,1.1-1.9,1.7-5,2.5-6.1,5.1s-.2,5.2,3.1,5c-.3-1.5,3.9-8,5.3-6.7s-3.1,2.9-2.2,5.5,3.1,1,4.4,1.2c-1.9,2.7-7,1.3-10.1,1.5s-5.1,2.2-5.4,2.3c-2,.4-3.2-1.5-5.1-1.6s-7.6,1-7.2,4.2,1.4.3,1.5.9c.8,3.5-.9,2-2.4,2.7-3.1,1.3-2.1,4-3.2,5.8s-2.8,1.1-2.6,3c-1.4-.1-3,0-4.5,0h-1.5c17.5-39.1,64.8-40.9,98.8-22.8,6.1,3.3,16.2,11.7,22.7,11.5s9.5-5.3,14.3-8.9c17.4-13.1,38.8-22.4,61-20.2ZM127.1,103.9c.5-1.6,6.7-5.1,2.8-6.6s-3.7,1.5-3.9,1.7c-.6.6-1.3,4-3.2,4.7l4.3.2ZM150.9,110v.7c.5-.2.5-.5,0-.7ZM225.3,117.5l-2.2-.8v4.5c1.5.1.2-2,.9-2.9s1.6.4,1.3-.9Z"/>
  <path class="st0" d="M128,283.7c0,0,.2-.9-.2-1.3-2-1.8-9.4-7.7-10.3-9.6s.2-1.5,1.1-1.1,6.2,6.4,7.9,7.9c13.7,12.2,35.3,29.4,51.6,37.4,5.1,2.5,11.7,5,17.5,3.9s22.1-14.4,27.1-18.6,9.7-8.8,14.2-13.5c2-.8.6,2.7.4,3s-1.4,1.4-1.5,1.5c-9.4,8.7-20.8,19.2-31.6,26.4-4.9,3.2-7.3,5-13.6,4.3s-13.2-4.4-15.9-5.8c-13.9-7.5-33.9-23.1-45.9-33.8s-.5-.5-.7-.7Z"/>
  <path class="st1" d="M314.4,159.4c-.4,4.3-1.4,8.5-2.2,12.7-1.8-.4-2.6,2.8-3.1,4-5.6,13.7-12.8,31.9-21,44.2s-6.5,6.1-2.6-.8c4.8-8.6,8.6-15.8,11.7-25.7s.7-1.3.7-1.5c2.1.5,2.4-2.8,3-4.5s.6-1.6.7-2.2c1.9.4,1.5-.9,2-2.1,1.7-3.8,2.7-7.8,4.7-11.4,2.7-1.5,1.9-3.6,2.2-6s-.1-2,0-3,1.4-1.8.7-3c1-.4,1.9-.9,3-.7Z"/>
  <path class="st1" d="M62.2,131.7c1.2,3.6,1.3,3,3.9,4.7,4.7,3-3.6,4.2-3.9,5.6-.1,4.2-.8,8.5-1.2,12.7s.6,1.9.5,2.8c-.2,1.3-1.6,2.1-1.6,3.8s1.8,6.4,3.1,5.6v.7c-3.1-.6-.7,5.8-1.5,6.7-3.6-.8-1.8-2.9-2.3-5.6s-1.2-1.9-1.4-3.1c-.9-4.6,1.2-10.8-.8-15.3,1-7.8,2.5-11.8,5.2-18.7Z"/>
  <path class="st0" d="M244.1,285.2c-1.3.7-3,.9-4.1,2.2-.2-1.2,1.1-2.6,1.9-3.4,1.7-1.9,7.2-7.7,9-9s1.6.8,1.5,1.9c-1,.9-1.7,1.9-3,3s-1.2,1.2-2.2,2.2-1.3-.3-3,3Z"/>
  <path class="st1" d="M59.9,184.1l7.5.8c-.1,4.6-2.8,4-6,2.2-.3-.8-1.1-1.6-1.5-3Z"/>
  <path class="st0" d="M257.5,268.7c.3-.5.5-1,.7-1.5,0,0-.1,1-.7,1.5Z"/>
  <path class="st0" d="M261.3,266.5c-.2.3-.5.5-.7.7-.6.1-1.9-.2-2.2,0,2-3.4,4.6-5.8,7.1-9,0,1.7-2.2,3.2-3,4.5s-1.3,2.2-1.2,3.7Z"/>
  <path class="st0" d="M256.8,269.5c.1-.3.6-.5.7-.7-.2.2-.5.5-.7.7Z"/>
  <path class="st0" d="M256.8,269.5c-.2.4.4,1.6-.1,2.1s-2.7.4-3.2,1.6c-.2-2.4,2.6-3.1,3.4-3.7Z"/>
  <path class="st0" d="M252.3,210.3c2.7-.5,6.5-.3,9.3-.8,6.4-1.1,12.9-3.5,19.5-3.7s2.1.8,2.9,1.2c2.5,1.6,3.4.7,2.5,5s-3.2,6.4-4,8.7-.2,5.1-1.3,5.9-1.5,0-1.8.3-5.1,8.4-6.6,10.3c-9.4,11.5-24.5,19.2-37.7,25.9s-15.5,5.5-17.5,7.9c-3,3.5,1,3.3,1.1,4.2s-.8,2.8-.8,4.4-.3,9.1.4,10.2c1.6,2.5,2-.6,2.7-1.1s1.8-.2,2.3-.9.5-2.2,1.1-3.2c2-3.1,4-.3,3.2.6s-1.2,0-1.3.1c-1.1,1.4,1.1,1.5,1.7,2.2,4.1,4.6-3.3,3.3-5.6,4.1s-2.2,3.3-3.4,4.9-5.4,1.7-4.9,4.9,1.8,0,1.5,1.4c-1,4.2-5.1,3.3-7.6,4.9s-.9,1.6-1.7,2.2c-3.7,2.5-7.6-1.2-5.6-5.1-4.9.7-4.5-3.9-3.7-7.5l3.7.7c.4-.4-.6-10.9-.9-11.5-.3-.9-1.6-1-1.9-1.5-4-6.6-2.3-9.8-13-7.6-.4,1.5,1.3,2.8,1.4,3.9s-1.9,2-1.3,4.2,3.9,3,4.4,4,.4,3.2.9,3.8c.7,1,4.8.5,3,3.7s-1.7,1.3-2.2,1.9c-1.1,1.4,0,3.5-4,2.7l1.5-3.7c-1.6.4-5.4-1.2-5.9-2.7-1.1-3.3,2.3-9.3-3.9-8.5l1.5-6c-8.1,1.9-2.6-2.8-3.1-4.7s-6.6-4.8-5.2-8.8c2.6.9,4.3,2.8,7,3.9,5.7,2.2,14.1,2.1,20.3,1.3s5.5-2.2,7.2-1.1.6,2.6,3,1.9c.2,2,0,1.2-1.1,1.5-2.9.9-5.9,1.2-6.4,4.9.8,4.8,2.9,10.9,3,15.7s-1.6,7.3-1.4,10.3.9,3,2.1,2,5-12.4,5.2-13.9c.6-5.2.1-10.6,0-15.6s-.1-5.2.1-7.7c3.7-1.7,6.5-4.1,10.2-5.9,9.7-4.6,20.9-8.5,30.6-14.3s10.8-6.8,13.7-11.4,2-.6,1.5-2.2c-3.5-2-7.4.7-10.8,0s0-3.1-4.9-3.8c-.4-1.4.3-2,.7-3,2.2-.1,4.2,4.7,5.6,4.5s2.5-1.9,4.1-2.7c2.9-1.3,9.1-1.9,11.5-3.4s11.1-14.8,9.4-16.4c-2.1,0-5.9.1-7.7.9s-1,1.6-1.5,1.9-1.7,0-2,.2,2.3,6.1,1.5,7.5c-.7-.8-3.5-3.1-3.7-3.7s.4-2.3-.4-2.3c-1.7-.4-1.5,1.9-1.9,2.3s-1-.2-1.3.2c-.5.5,0,1.7-.2,2.1s-1,.5-1.5.7-1.4.7-1.5.7c-.8.2-2.1-.2-3,0s-1.3.7-1.5.7c-.7.1-1.6-.1-2.2,0-6.2,1.2-2.6,2-3.8,3.6s-2.7,1.3-3.3,1.6c-2,1,.1-3.2-3-2.2s-.3,1.4-.9,1.5c-1.6.4-3.9-.2-5.8,0-3.9.5-6.2,2.8-8.7,5.6.4.7,2.1.3,3,.4s1,0,1.5,0c-.3,3.8-4.8,2.1-6.7,4.1,1.2,1.4,6.2-.9,6.7-.4-.2.8-.7,1.4-.7,2.2-3.7-.3-4.2,2.2-6,4.5-2.5,0-4.7,1.3-6.4,3l-.7-1.5c-1.6,1-5.8,3.8-7.5,3.8s-.4-1.9-3.1-2.2-2.2,1.1-2.5,1.4-1.2,0-1.5,0c-4.3-.7-8.4,3.1-12.7,4.9s-9.8,2.4-14.2,4.9c-.9,0-2.1,0-3,0-1.4.1-1.4.7-1.5.7-1.2,0-2.5,0-3.7,0-5.7-.2-6.2-.6-6-6.4s.9-2.4,0-4.8-1.2-.9-2.2-1.5-4.6-8.1-4.9-8.9c-1.2-3.7-.4-7.7,4.1-5.6,1.5.7,3.1,4.1,3.5,4.2,1.7.3,3-1.3,4-1.6s1.7.2,2.2,0c.5,2.5-2.5,1.6-3.6,2.4s-.5,4.9,1,5.8c2,.4,3-3.4,4.1-2.2s.1,4,0,4.7-1.2.4-1.6,1.5-1,5.4-.6,5.7,4.6.2,5.3-.3c1.2-.9.6-5.2,6.2-3.3s1.1,2,1.2,2.1c1.1.7,2.9-2.1,4.3-2.8,2.6-1.2,5.9-.7,8.8-1.7s7.8-5,8.4-5.5c.9-.8,3.7-5.6,4.3-5.8,2-.5,2.4,3.3,3.1,3.8,1.1.7,3.4.4,3.9.8s-.9,2.8,1.6,2.1c1.1-3.5-1.9-3.3-2.2-3.8-1.1-1.4,1.1-1.4,1.5-2,2.1-3.6,3.7-5.6,7.3-8.3s9.2-4.2,13-5.7,6.1-.4,9.7-1.6,6.7-3.6,9.7-5.2c.3-1.6-.5-1.1-1.7-.9-4.7.9-10.5,1.7-15.1.6-1.8,1.5-11,2.2-11.5,3.1s.3,4,0,4.4c-1.2,1.4-3.1-.9-2.2-3-.5-.6-5.1,1.3-6,1.5-1.6.4-3.8.4-5.2.7-3.6.9-4.1,3.2-6,4.5s-5.7,1-6.7,1.5c.5-6,0-3.5-2.9-4.9s-7-6.4-6.7-.8.5,3.9.7,5.3,2.5-.6,2.3,1.6-4.4,1.4-2.3,6.3c-1.7-.5-3.3,4.4-4.4,3.1s.7-2.9.4-3.7l-12,7.5c-2.7-1.3.7-7.1,3.1-7.2s2.3,1.1,5.2-1,3-3.7,3.4-6.7,0-1,0-1.5c0-.7,0-1.5,0-2.2s0-1.5,0-2.2,1.4-1.2.7-2.1-1.4-.3-2.1-1.3c-4.3-6,2.2-9.3,6.2-6.4s.2,2,.4,2.3,1.1-.8,2.2-.4,7,3.8,7.2,4.1c1.2,2-2.9,3.2,3.3,3.7s1.5,0,2.2,0c4-.3,10.1-2.3,14.2-3.4,6.2-1.5,12.7-4,18.7-5.6s2.1.2,3,0,1.9-.7,2.2-.7c1.5-.3,3-.5,4.5-.7ZM227.2,238v.7c.5-.2.5-.5,0-.7Z"/>
  <path class="st0" d="M256.8,101.8c-5.1.5-6.6,5.1-9-1.1s-1-1.5-.7-2.7c2-.7,4.2,2.5,5.5,2.2s1.4-2.3,2.9-3.1c6.6-3.9,14.1.7,20.8-1.3-.2,1.5.3,3.4,0,4.8s-4.9,1.6-3,3.4,3.5-.6,4.5-.8c0-.5,0-1,0-1.5.7,0,1.6-.1,2.2,0s.3.5.9.5c1,0,5.6-1.6,5,1.3s-2.6,3.7-3.4,4c-2.3.7-8.4-2.3-9.2-.2s2.5,1.5,3,1.9,0,2.2,0,2.2c-.5.3-3.2-.6-4.2.7s.5,2.2.1,3.8c-1.1,4.7-9.5,20.3-12.6,24.5s-1.9.7-2.4,1.7c-1.3,2.7.9,4.5-4.8,5.3-.4,1.5,1.1,2.2,1.5,3,2.6,5.5,6,10.1,6,16.5s0,1,0,1.5c-.5,0-1.5.8-2.6.8-2.5,0-3.4-2.3-5.4-3.7s-8.8-6.1-10.3-6.2c-3.2-.2-5.9,2.8-8.7,4.1s-4.4,1.9-6.6,2.7-6,2-9,3-6.2.8-8.2,2.7-1.7,6.3-5.4,8.9-1.8.3-2.1.5c-.8,1-.7,13.8-2.4,16.4s-2.1,2.2-2.2,2.2c-1.6,1-3.7.8-4.3-1.3-1-3.5.3-11.3-.2-15.6-1-10.6-8.4-13.7-13.9-21.3s6.3-2.8,9.2-1.8,5.8,4.3,9.1,5.5c0-1,.2-1.9.6-2.8,1.6-3.2,7.1-12.7,7.6-15.2,1.4-.6,1.6-2,2.2-3,2.6-4.1,3.2-5.5,3.7-10.5s.7-.5.7-1.1-2.5-6.5-3.7-5.6c0-.2,0-.5,0-.7-.5-3.3-.9-2.6-4.5-3.8-.1-.9,1.4-1.1,2.2-1.5,9.5-4.5,13,4.1,18.3,3.7s9-5.7,12.4-6.7c8.2-2.4,7.7-3.2,13.5-8.2s2.1-1.4,2.2-1.5c1.7-.9,5.7-1.2,7.5-3,1.3,0,1.8-.7,2.2-.7,3.8-.6,6.9-2,10.5-3.4,0-.9-2.7,0-3-.4s1-3.6-1.1-3-5.1,3.4-6.4,3.7-3.6-.1-5.2,0ZM252.3,128c5.2-5.3,7.7-9.4,16.4-9-.3-3.6,5.5-13-1.8-11.9-.2,0-4,1.4-4.2,1.5-2.2,2,3.7,1,3,2.2-3.3,0-3.6,4.8-5.2,5.6s-3.3,0-4.9,1-1.4,2.7-2.2,3.8c-1.8,2.4-4.9,5.2-6.3,7.5-5.5.2-1.7,4.3-2.9,7.1s-2.6,1.4-3.1,2.3-.5,2.9-.7,4c-2.4.7-1.1-1.9-2.2-2.7s-2.3,0-3.3-.3-.5-1.3-1-1.5c-.9-.2-3.4-.2-4.3,0s-1,2-1.2,2.1-3.3,2-3.7,2.2c-3.7,1.9-1.2.8-3.4,3s-2,.6-2.4,1c-.7.7-4.9,5.4-5.1,5.7-.3.9.5,2.2.4,3.3s-3.9,3-4.2,3.5.3,4-1.1,5.2c-2.2,1.8-4.6,4.1-6.7,6s-2.3,2.2-3,3.7c1.8.8,2.6-1.3,3-1.5,3.2-1.5,5.2-3.4,7.3-4.3s6.5-1.4,9.6-2.4c9.4-3.3,14.8-5.8,22.1-12s2-.3,3-1.1c5.2-4.2,14.1-14.8,17.3-20.6s.2-1.7.8-2.5,2.1-1.1,2.2-1.7c1.6-6.6-8.6-.6-10.5,1.2l-1.5-.7ZM259,113c-.7-.6-4.3,1.8-3.7,2.2,2.6.3,3,.1,3.7-2.2ZM227.6,132.5c2.1.2,3.8-.6,5.5-1.6,3.9-2.4,9-7.7,12.2-11s1.7-.8,1.7-.8c.4-.5.2-1.9-1.1-1.5s-.5,1.3-1.1,1.8c-1.2.9-7.8,5.8-8.2,6-7.1,2.7-9.3,1.6-15.7,7.1s-2-.5-1.5,1.5c-.9.5-1,.6-1.5,1.5-3.2-.3-1.8.3-2.2,1.5s.1.7,0,.7c-.4.3-1.8-.2-2.2,1.5s0,1,0,1.5h-2.2s0,4.5,0,4.5c1.1.5,2-.7,2.2-.7,3.3-.4,7.7-3.2,10.4-5.7s3.8-5.2,3.8-6.3ZM256,162.4c1.5-2.1-4.1-9.4-5.2-8.2-.7,3.9.8,8.1,5.2,8.2ZM198.4,174.4l-4.5-.8,1.5,4.5c1.3.2.5-1.4,1.1-2.2s2.1-.3,1.9-1.5Z"/>
  <path class="st1" d="M194.7,136.2c.6.4,2.6.4,2.9.8s-.2,3.2.2,4.6,1.2,1.3,1.7,2.1.3,1.9.4,2.2,2.4-.5,2.8-.9c.5-.6.6-2.6,1.1-3.8s2.1-1.9,2.1-3.1-2.6-3.3-2.8-4.6,1.1-3.7.6-5.8-3.9-1.8.4-2.7,1.9,1.4,4.1,1.5c0,.2,0,.5,0,.7.6,2.5,1.5,4.7,3,6.7-.5,4.9-1.1,6.4-3.7,10.5-3.5-.5-1.8.8-2.2,3s-6,12-7.6,15.2-.6,1.8-.6,2.8c-3.3-1.2-5.7-4.3-9.1-5.5s-13.5-4.2-9.2,1.8,12.8,10.7,13.9,21.3-.9,12,.2,15.6,2.8,2.3,4.3,1.3c3.7,0-.6,2.5-.8,4.1s2.1,8.1-1.2,3.5-2.8-1.6-3.8-2.6-.4-5-5.6-3.4c-1.5.5-2.2,3.4-3.9,1.3-3.4-4.4.6-3.4,1.1-3.7,2.4-1.4-2.6-1.2-2.2-2.2,2.3-.7,7.2,3,8.7.8s.4-5.3.3-5.6c-.3-1.9-2.8-2.8,0-5.3l-3,.4c-.8-1.9,1.5-1.3,1.4-1.8-.2-2.2-.5-5.1-2.9-4.2,2-4.4-1.3-3-2.1-3.9s-.1-2.1-.8-3.3c-1.4-2.3-5.1-3.3-5.7-4s.6-2.6.1-3.8c-1-2.3-5.4-1.5-2.6-6-4.2,1.1-.5-3.1-2.4-4.4s-3.4-.2-3.6,0c-.5.5,1.3,3.2-3.3,2.2s-.1-2.1-3-1.5-2.2,2.1-2.4,2.2c-1.8,2.1,1.8,1.1,1.9,1.9.3,1.6-.3,3.9,0,5.6l-1.9-3.7c-.5,1.1-5.3,2.5-5.6,2.2-1.2-1,2-2.1,2.4-3.2.8-1.8.2-4,1.3-5.8-1.4-.4-1.8,1.1-2.7,1.3-1.5.3-4.7-2.1-4.8,1.7,6.9-1.9,3.6,5.3-1.9,2.3-.6.5.3,1.1.3,1.9,0,3.5-5.7.8-5.9,1.1-1.9,2,3.7,3.6,3.8,4.2.2,1.9-1.7,2.4-1.6,4.1,2.1-.4,3,.3,2.2,2.6s-1.9.9-2.7,1.4-2.2,3.6-4,2,4-2.5,3-4.5c-7.6,0-3-2.5-3.8-5.6s-2.6-.2-2.9-.4-1.8-7.9-1.5-8.2,2.2,1.3,4-.7.3-2.2.8-3.1c1.4-2.3,7.2.9,9.4.4-1.5-.6-2.5-2.3-2.9-3.9s2.3-.7,1.4-2.9-3.2-1.2-4.5-1.1l1.5-1.1c-2.6-.4-1.1-2.7-1.5-3.4s-4.3,0-5.2.8c.6-1.9.2-12.9.7-13.5,1.5-1.8,1.5,2,1.6,2.1.2.2,4.5,1.6,4.8,1.6,1.3,0,1.9-1.9,3.4-1.5-.5,1.1-.5,4.7-.9,5.1s-4.9,1.2-5.1,3.1c1.9.4,3.3-1.4,4.9-1.5,4.9-.3,2.7,2.9,3.5,5.5s3.1,3.5,3.4,3.5c2.6.5,5.6-1.6,7.3-1.6s.4,1.6.8,1.6,7.2-2,8-2.3,1.8-3,4.3-2.2c.5,7.5,3.3,10.8,11.2,10.5s4.3,0,5.2-2.2c-2-.2-4.1.2-6,0-7.8-.8-12.2-10.7-3.2-14,7.2-2.7,13.3,1,13.3,8.8,2.9-3.2-.3-7.6-.4-11.2ZM191.7,151.2c2,.4,1.8-1.5,3-2.6l-.4-.4c-.3,1.1-3.1,2.7-2.6,3ZM147.3,158.1c-.1-.2-3.2-2-3.6-1.6-2.1,2.1,6.3,5.8,3.6,1.6Z"/>
  <path class="st0" d="M152,196.1c-.2,2-.2,3.2-.7,5.2s-.6,1-.7,1.5l-3.4,1.5c-1-3.6-3,.5-4.9,1.8s-5.1,2.6-5.2,3c-.3.8-.2,2.4,1.1,1.9s8.1-6.3,9.4-5.2c-.8,2-1.9,4.1-3,6-3.9,1-6.1-.2-9.3,0s-.3,1.4-.4,1.6c-1.3,1.4-4.9,1.5-5.2,2.6-.9,3.1,2.6,2.4,4.5,1.9-1.4,1.1-4.4,3-6.2,3.9s-10.9,4-9.5,5.1c1,0,2,0,3,0,0,1.6-1,2.3-2.2,3s-1.2-.3-1.4,0c-.4.5-.3,6-1.8,7.3s-6.3,1.2-6.6.9c-.8-1.1,2.1-4-3.7-3-.5-1.9,1.4-1.7,2-2.4s.6-2.5,1-3.5c1-.9,4.2-4.7,3-6s-4.1,1.2-5.2.7c.1-.8-1.1-2.6.7-4.7s6.4-.2,3.8-5.7c-2.8-.1-4.1,2.9-6,4.1s-8.4,4.1-10.4,4.9-2.2,0-3,.7c0,0-1,.2-1.3-.2-1.3-1.6,1.2-5.1-4.9-2.6s-1.1,1.2-1.3,1.3c-.6.3-2.2,0-3,.7,0,0-1.3.3-1.5-.5s.6-6.9-1.5-6.3v-.7c1.5-3.8-2.9-4.8-.7-8.2,1.4.2,4.8.8,6,.7.3.8.9.6,1.5.7,3.7,1,6.4,4.8,9.3,4.5s6.2-2.5,7.3-3c13.7-6.7,24.2-9.7,39.5-12,.8-.1,1.4-.7,1.5-.7,3.3-.5,6.4-1.1,9.7-.7ZM122.1,205.8c.4,4.7,1.7,7.3,5.2,2.6-1.5-1.2-3.1-2.8-5.2-2.6ZM120.8,209.3c-.6-.6,0-1.8-1-.8-2.7,2.3,1.2,3.6,2.2,2.6s-1-1.5-1.2-1.8ZM85.4,214.1c-3.7-.6-5.3.3-2.6,3.7,1.5.3,3.1-2.3,2.6-3.7ZM126.5,218.6c-.5-4.3-5.1-1.4-7.5-.7-.5.7,1.2,2.7,1.9,3,1.7.8.9-1.9,1.2-2.2.5-.4,3.4.1,4.4,0ZM116.1,232c.4-6.1-1.1-6.1-.7,0h.7ZM115.3,235.8c.4-4.1-1.1-4.1-.7,0h.7Z"/>
  <path class="st1" d="M251.6,232.8c5,.7,4.4,3.7,4.9,3.8,3.3.7,7.2-2,10.8,0,.5,1.6-1.2,1.7-1.5,2.2-2.4,1-5.3-.3-4.5,3-3-.8-10.5-.1-13,1.4s-.8,1.7-1.6,2.3-1.8.5-2.4,1c-.9.7-3.2,4.3-4.6,3.3s0-1-.7-1.3-7.4-1.8-7.7-1.5l-.4,4.5c-2.9,1.5-5.4,3.8-7.9,5.6s-2.1.3-2.2.4-.1,2.2,0,2.2c.8.4,4.1-.7,3.7,2.2-2.6.5-7.4,2.9-10,2.1s-.9-1.5-1.4-1.8c-3.9-2.3-6-1.7-10.2-1-.4-1.5,1.2-2.4,1.5-3.4.8-2.6-2.5.1-2.8.2-2.4.7-5.4.1-7.4.8s-2.6,2.3-3,2.4c-3.6,1.1-3.3-1-5.4,3h-2.5c0,.1-.5.7-.5.7-1.2-.9-14.5.2-11.2-6,1.2,0,2.5,0,3.7,0,1.2,1.4,1.8,1,1.5-.7.9,0,2,0,3,0,5,.2,14.7-2.2,19.5-4.8s4.1-4.2,7.4-4.9c.3,0,1.4,0,1.5,0,6.5,1.8-3.7,4-2.2,6,5,3.3,3.8-.9,5.7-1.4s1.9.6,2.8.4c1.9-.3,12.5-6.5,13.8-8.2s.1-1.2.2-1.3c1.8-2.3,2.3-4.8,6-4.5,0,1,0,2,0,3,1.7-.2,3.9.4,5.5,0s4.9-3.3,6-3.9,2.7-.5,2.8-.6c1.9-1.8-2.7-1.2-3-1.5.3-4.4,1.9-4.3,6-3.7Z"/>
  <path class="st1" d="M93.6,171.4l3,4.5-4.5-.7c.4,4.3-.2,2.4-2.5,3s-.4,1.5-.9,1.5c-1.2,0-1.9-1.6-3-1.5s-3,2.3-5.6.8c-.2,2,2.7,5.4,2.2,7s-2.5.9-3,1.2,2.2,3.2-1.5,5.6-6.8-.6-6.6,4.4c.2,7.5,4.8,3.9,9.1,4.9s1.5,2.6,3.2,3,.3-1.5.8-1.5c3.8-.2,6.7,4.6,8.8,4.4s2.4-1.9,3.2-2,2.4,2,4,1.4c.2-4,1.9-2.5,4.3-3.5s1-2.8,3.9-1.7c-4.4-6.1,4.6-9.2,3.7-.7,4.3.9,2.5-1.7,3-2.2s3.1.4,4.5-.4,1.2-3.1,1.6-3.3c.8-.6,3.2.7,4.6.5s2.3-1.2,3.3-1.2,1.6,1.1,2.1,1.1,3.2-2.7,4.9-2l-1.5-2.2c3.6-.9,6.8,2.3,6,6-15.3,2.3-25.9,5.2-39.5,12s-6.5,2.9-7.3,3c-2.8.3-5.6-3.5-9.3-4.5.2-3-1.3-.8-1.5-.7-1.2,0-4.6-.5-6-.7s-1-1.2-1.5-.7c-2.1,1.9,2.9,8-.8,6.4l-10.5-20.2c2.9-1.3,7.2-3.5,9-6s.5-1.5.7-1.9.6-1.4.7-1.5,1.5.4,1.6-.4-.9-2.6-.8-4.1c.3-5.9,5.5-2.3,7.5-2.2s6.2-.5,5.2-2.2c.7,0,1.5,0,2.2,0,1.5,0,1.7.4,1.5-1.5.4-.2,1.4-.6,1.5-.7Z"/>
  <path class="st1" d="M259.8,168.4c0,0,.5.7,1.1.6,2.4-.1,2.7-2,3.4,2.4-2.4,0-4.6-1.5-6.3.8s-.2,1.2-.4,1.5c-.4.7-.7.8-1.5.7-.2-.7-1.4-1.9-2.2-1.5,0-.5,0-1,0-1.5s0-1,0-1.5l-3,.7.7-2.2c-4.6-1.1-3.1,3-4.2,3.8-3.7,2.7-10.4,1.3-13.3,2.3s-1.7,4.1-5,2.9l1.5-2.2c-4.7.9-5.4-5.6-4.5-9,2.2-.9,4.5-1.7,6.6-2.7s5.5-4.3,8.7-4.1,8.5,4.9,10.3,6.2,2.9,3.6,5.4,3.7,2.1-.8,2.6-.8ZM232.8,170.7c-.6-.6-3-.3-2.2,1.9s3.2-.9,2.2-1.9Z"/>
  <path class="st1" d="M242.6,211.8c.2-1.5-3.9-4.4-4.5-3.7-.2,1,.3,4.2,0,4.5-1.2,1.5-3-.8-1.8-3-5.9-3.1-3.1,3.5-3.4,3.7-1.1-.5-5,.9-5.2.7-1.5-1.3,1.5-1.6,1.5-1.9,0-.6-.7-1.4-.6-2.2s1-2.4.3-3.4-5.2-.3-6.8-1.5c-1.5,2.6,2.1.1,2.4,3.5s-2.2,5.9-6.1,5.6-1.3-2.3-3.3-1.6c-.8-2.7,4.3-.6,3.7-3.4s-5,.5-6.4.4,1.6-4.1,2.4-4.4,5-.3,5.5-.9c.8-1.2-2.8-4.8,1.2-5s3.5.9,4,.5c2-1.7-4.3-1.7-3-3.7,2.6-.4,6.2-.8,8.6.8s1.2,3.9,4,5c4.1,1.6,6.3.4,9.9-1.3.4,2,1.4,3-.4,4.5s-2.9.7-1.9,2.2,4.2.9,3,4.5c-.9.2-2.2-.2-3,0Z"/>
  <path class="st0" d="M295.7,153.4c0-.5-.7-4.5,1.1-3.7s4.9,4.9,6,6,.3,2,2.6,2.3c.5,1.8,1,7.2,3.8,4.9s.5-2,.9-2.5,1.1,0,1.3-.1c.6,1.2-.7,2.5-.7,3-2.4,1.3-3.8,3.5,0,3-.3,2.3.5,4.5-2.2,6-1.3-.2,1.3-3.7-1.1-3s-4.9,4.2-4.9,7.1c0,4.3.5,4.6-.7,9.4s-.5,1.6-.7,2.2c-2.5,0-2.5,2.6-3,4.5s-.5.8-.7,1.5l-3,.4c-.1-3.5,2.4-7.8,2.9-10.7s-.6-1.6-.6-1.6c0-.5,0-1,0-1.5,3,.3.9-1.5.7-2.2s0-1,0-1.5c3.1.4.8-2,.7-3-.4-4.1-.1-8.5-.7-12.7s-.6-4-1.5-5.2c0-.7,0-1.5,0-2.2Z"/>
  <path class="st1" d="M217.1,169.2c6.8,5.3-5.4,7.5-3.7,13.5-1.4.4-2.2-1.7-3.3-1.5-2.1.4-2.6,6.3-2.7,8.2l4.5-.7c.5,4.6-1.3,6-4.5,8.6,2.7.4,1.2,2.7-.5,3.2s-6,.3-6.2.1-.4-2.8,1.5-2.3l-3-.7c1.7-2.5,1.5-15.4,2.4-16.4s1.5-.1,2.1-.5c3.7-2.6,3.1-6.8,5.4-8.9s5.7-1.9,8.2-2.7Z"/>
  <path class="st1" d="M253.8,150.4c.8-.8.5-2,1.7-2.5s7.2-2.1,7.6-2c.8.2,4.1,6.6,4.6,6.8,1.4.6.9-1.3,1.6-1.5,3.8-1,6.1,3.7,8.1,3.7s6.7-1,8.7-2.2l-.4,3-4.1,3.7c0,0-1.3,0-1.5,0,.4-2.3-1.1-1.3-2.5-1.6-5.4-1.3-2.6-1.8-3.6-2.8s-8,.9-6.6,2.8,2.1-.6,1.5,2.7-2,1.1-2.3,2.6c2.2-.2,5.3-.4,3.4,2.3s-8.3,1.4-10.1,1.5c0-6.4-3.4-10.9-6-16.5Z"/>
  <path class="st1" d="M151.3,201.3h4.5c.4,1.7-1.9,2.2-2.1,3.5s.7,1.8.5,2.8c-.5,2.2-6.6,4.6-1.4,8.7-3.3-1.1-5.5,3.9-8,4.3s-2.7-1-4.3-.5-.9,2.5-1.3,2.8-7.5,1.3-8.9,2-1.1,2.1-2,2.7-3.1.4-4,1.8c5.3,2.8-3,5.2-4.1,7.1s-.2,2.1-.6,2.8c-.9,1.6-6.2,3.5-8.4,3.2s-4.4-2.1-8.2-.7l-4.2-2.2c2.9-.2,1.4-3.9,4.9-3.7s1.7,2.9,3.2,3.7,3.9,1.4,4.4,1.5c3.3.3,4.5-1.7,7.1-2.7l.7-8.6c1.3-.7,2.2-1.4,2.2-3,2.2-.2,15.8-7.4,18.2-9.1s3.4-3.3,5-5.9c4.6-1.1,2.1-1.5,3.7-4.9s1.5-2.3,2.3-4.1.5-.7.7-1.5Z"/>
  <path class="st0" d="M80.9,138.5c-2.4-.5-8.7,2.2-4.8-1.5s1.9-2.1,3.4-4.1,1.8-.8,2.2-1.5c1-1.8-3-.5-3.7-2.2s1.1-1,1.3-1.2-.8-1.5-.3-2.2,2.5-.6,3.1-1.5,0-2.5.8-3.1,8.1-2.5,8.5-2.1,0,2,.7,2.6,3.4-.6,3,1.4c-3.8,1.6-7.1,4.7-11.2,4.1v3c4.8,1,3.6-1.7,4.7-2.8s5-1.1,6.1-.9c1.9.3,2.1,1.9,5.1,1.3s3.1-2.3,5-4.3c.4,1.1-1.1,3.1-.7,3.6s2.2.4,2.2,1.6c-2.7-.7-2.4,2.8-5.2,2.3-.7,3.1,4.2-.2,2.9,3.3s-2.7,1.7-4.4,2c0-.7,0-1.5,0-2.2-3,0-5.2,2.4-8.2.7,0-.7-.1-1.6,0-2.2l5.2-3.4c-2.6-1.3-4.6,0-5.2,2.6-1.8,1.4-8,1.9-9,2.6s-1.5,3.7-1.5,4.2ZM100.7,133.2v.7c.5-.2.5-.5,0-.7Z"/>
  <path class="st0" d="M99.6,136.2c-.4,7.8-8.3,3.8-10.5,5.2-.3-1.8.1-4.9,2.2-5.2s2.1.6,3.2.5,3.6-.3,5-.5Z"/>
  <path class="st0" d="M110.8,97.3v3c-2.1,1.2-2.2,2.9-3.3,3.8-1.8,1.3-6,1-7.2,3.7,7.8-.4,13.5-7,21.3-7.5s2,0,.2.9c-2.9,1.4-6.2,1-4.3,5-.3.3-7.3.4-3.8,2.6s13.2-.5,15.7-1.1c.6,2.8-.7,1.8-1.6,2.5-3.9,2.8-2.5,1.4-6.2,1.3-5.8-.2-12.6-.7-18.3-1.5s-3.8.6-4.4-1.2c-.9-2.6,3.1-4.6,2.2-5.5s-5.5,5.2-5.3,6.7c-3.3.2-4.4-2.1-3.1-5s4.3-3.4,6.1-5.1,1.2-3.5,2.7-1.1,0,2.9.7,3.8c1.9-.7,3.4-3.6,4.3-4.3s3.1-.7,4.3-1Z"/>
  <path class="st1" d="M110.1,156.5c.4.3-.4,2.6.2,3.6s1.5.5,2.1,1.2c1.6,1.9,1.7,4.1,5.2,3.4l-1.5-1.9,1.5-.4c.2-2.2-2.5-2.5-3-4.9s-.2-2.2,1.5-1.9c-.5,2.5,1.7,2.7,2.5,3.8,3.2,4.6.8,9.1.5,14.1,4.4-.8,5.3-1.7,5.3,3.4s.4,2.1-.8,1.9c-.1-2.7-3.6-2.4-5.2-3.4s-1.5-3.2-3.8-2.5c.4,1.5.7,2.6.1,4.2s-2.7.9-.9,5,1.7,0,1.5,1.3c-2.4.6-5.4-3.8-5.3-5.6s1.6-.3,1.6-.8c0-1.1-1.1-1.5-1.4-2.4-1-2.8,0-2.2,1.5-2.5s.7-2.1.6-2.2c-.7-.8-4,2.6-4.5,2.2-.5-2.1-1.2-4.9-.8-7.1s1.1-.3,1.7-.4c2.3-.3-1.8-2.7-2.2-3.3s-.1-1.7-.3-1.8c-.3-.3-5.3,0-5.9-.9-1.9-2.5,3.8-1.5,4-1.5.6,0,.4-1.5.9-1.5s4.6.7,4.8.8Z"/>
  <path class="st0" d="M188.7,131.7c.9.9,4.8,3.8,6,4.5.1,3.6,3.2,8,.4,11.2,0-7.8-6.1-11.4-13.3-8.8-9,3.3-4.6,13.2,3.2,14l.7,2.2c-7.9.4-10.7-2.9-11.2-10.5s-.3-5.4,0-6.7,2.6-3.7,3-4.1c3.2-2.7,7.3-1.8,11.2-1.9Z"/>
  <path class="st0" d="M290.5,145.2l-3,.4c0-2,1.5-3.1,1.5-5.2,0-3.2-3.9-2.7-3-6.4,2-.3,4.9,3.9,6.2,3.6s4.1-3.4,5.5-4.3c4-2.4,5.4-1.4,9.5-1.1s1.5-.6,2.2-.5.4,1.4.5,1.5l-1.5,3.7c-.8-.3-2.2-.8-3-.4s-3.6,3.5-3.7,3.9c-.2,1.2,3.5,5.1,2.9,7h-4.5s.7-3,.7-3c-5.4.7-3-.9-3.7-2.3s-1.4.7-1.5.8c-.6.1-2-.2-2.2,0-1.1,0-1.9.4-2.2,1.5-.6.1-.6.2-.7.7Z"/>
  <path class="st0" d="M305.4,119.8c-.7.6-2.5.5-2.9.9s0,1.1,0,1.4c-2.7,0-4.4,2.2-6.9,3.2s-8.4,1.9-8.7,2.2-.8,4.5-1.6,5.4-2.2.5-2.3.4c-.3-.3.5-6.1-1-8s-9.4-2.6-4.3-5.1,5.9,4.3,9.3,4.9c1.2-4.3,14.4-10.9,17.7-8.7s.5,3.2.7,3.4Z"/>
  <path class="st0" d="M92.9,166.2c.5,0,1,0,1.5,0,0,1,.1,2.1,0,3s-.7,2.1-.7,2.2-1.1.6-1.5.7c-.6.3-1.9-.8-1.5,1.5-.7,0-1.5,0-2.2,0-1.9.2-5.8,0-5.2,2.2-2-.1-7.2-3.7-7.5,2.2-4.1.7-1.5-2.2-1.7-4s-4.1-6.8-.5-6.5c5.6,7.7,5.3,1.9,9.7,0s7.1-1.6,9.7-1.5Z"/>
  <path class="st1" d="M268,179.6c.5,0,1.1,0,1.5,0,1.5,1.6,1.3,7.9,1.6,8.2.4.5,2.9-.9,2.2,1.5-4.2.5-6.4,4.2-11.2,3-.3,1.1,1.2,3.8.7,4.5s-7.2,3.2-6-1.8,1.6-.4,1.6-.9c0-.8-.8-1.7-.8-2.9s1.5-2.7,1.5-4.2c1.2.5,4,3.7,4.9,3.8,2.4.3,2.5-1.7,3.7-3.1s4-1.8,1.3-2.2-1.2-1.2-2.4-3.3-2.9-.8-1.1-2.8c.8,0,1.7.1,2.6,0Z"/>
  <path class="st1" d="M295.7,153.4c0,.7,0,1.5,0,2.2s-.7.5-.7,1.2c0,1.3.4,4.8,2.2,4.1.6,4.2.3,8.7.7,12.7l-.6.5c-.2.8-.2,1.6-.1,2.5s0,1,0,1.5c-.9.3-.8,1.5-.7,2.2s0,1,0,1.5c-2.4,1.6-1,.2-1.6-1-2.2-5.2-.1-3.8,0-7.5s-1.6-6.5-2-9.2.5-2.5.4-3.4-1.2-1.7-1.3-3.8c-.2-3.3.3-4.9,3.8-3.4Z"/>
  <path class="st0" d="M124.3,124.3c4.9-3.3,8.1-5.2,13.5-1.5.6.9-4.7,5.3-5.9,5.6s-3.2.2-4.7.5-3.7,2.2-5.5.6-.9-2.2-1.1-2.3c1.1-1.1,2.4-2.1,3.7-3Z"/>
  <path class="st1" d="M309.9,133.2c0,0,1.1-.4,1.5.5,1.5,3.6,1.6,13,.6,16.9s-3.1,6.7-3.7,7.1-2.1.2-2.8.2c-.2-.6,0-1.3-.4-2.2-.8-1.5-3.7-2.9-3.4-5.3,2.2-.9,4.5,1.3,5.7,1.4,3,.3.8-3.8,1-5.5.2-2.6,5.4-6.9,0-9.4l1.5-3.7Z"/>
  <path class="st0" d="M279.2,169.2c1.6-.1,2.9-.4,4.5-.7-.3,1.1-1.2,6.5-1.5,6.7-.4.3-2.8-1.1-3-.8-.6.9.3,3.3-2.6,3.8s-.2-2.8-.4-3c-5.3-.7-2.8,2.7-3,2.9s-3.5,1.5-3.7,1.5c-.4,0-1,0-1.5,0,0-1.8-.2-3.9.8-5.5,1.5-2.3,6.5-1.8,6.7-4.9,1.2,0,2.5,0,3.7,0Z"/>
  <path class="st1" d="M91.4,131.7c0,.2,0,.5,0,.7-.1.6,0,1.5,0,2.2v1.5c-2.1.3-2.6,3.5-2.2,5.2,0,0,.3,1.3-.5,1.5-3.2.8-7.8-.6-7.8-4.5s1.1-3.9,1.5-4.2c1-.7,7.2-1.2,9-2.6Z"/>
  <path class="st1" d="M106.3,223.8c1.1.4,4.8-1.2,5.2-.7,1.2,1.2-2,5-3,6-4.5,4.4-7.7,3.9-12.9,6.2s-2.9,4.1-6.6-.6l6.1-1.3c1.2-1.5,10-4.6,10.3-5.1.5-.7-.8-2.4-.7-3.2s1.4-.8,1.5-1.2Z"/>
  <path class="st1" d="M305.4,119.8c.1.1,1.1-.2,1.4,0,.7.6,3,9.6,2.3,10.4-2.1.4-2.6-2.5-4.2-2.8-2.9-.5-4.3,2-4.5,2.1-1.6.4-3.8-.2-5.5,0,1.3-4,6-3.7,7.5-7.5s-.3-1.1,0-1.4,2.2-.2,2.9-.9Z"/>
  <path class="st1" d="M268.8,247.8c.8-3.9,3.3-7.7,6-10.8s4.6-5.3,6-4.1-9.5,12.8-9.9,14.8c-.7.5-1.7,0-2.1.2-.7,3.7-1.3,5.3-3.8,8.4s-10,10.1-13.1,5.1,3.5-.4,4.9-1.1,4.3-5,4.8-5.7c.9-1.2.9-2.9,1.5-3.7s4.5-2.6,5.6-3Z"/>
  <path class="st1" d="M83.1,167.7c-4.5,1.9-4.2,7.7-9.7,0s0-.7-.3-1.2c-.5-.8-2,0-.5-3.3.5,0,1.4-.6,2.2-.7,6.7-1.3,5-.4,8.2,5.2Z"/>
  <path class="st1" d="M92.9,166.2c-.9-2.3,1.6-2,1.6-3.3,0-2.5-1.9-5.2-1.6-7.9,7.7,0,2.6,4.4,3.1,6.2s2.1,1.8,2.7,3.3,1.3,6.6.9,6.9c-2.7-1.7-4.2,1.8-5.2-2.2.1-.9,0-2,0-3-.5,0-1,0-1.5,0Z"/>
  <path class="st0" d="M74.9,162.4c-.9.2-1.7.7-2.2.7-3,.4-5.1,0-8.2,0,1.4-4.3,7.2-7.5,11.6-6.7s.2,4.1-1.1,6Z"/>
  <path class="st1" d="M239.6,185.6c.6,0,2.1.2,2.2,0,.5-.4-1.1-3.4-.8-3.7s3.7-.6,4.5-.7l-1.5,5.2h3c-1.4,2.3,0,4,0,5.6s-1.4.6-1.8,1.2-.8,2.7-1.6,3-2.4-1.4-1.8-2.2.9,0,1.4-.6c2.3-2.9,1.8-4.2-2.2-3.9v3c-3,.4-1.8-4.5-1.5-6.7Z"/>
  <path class="st1" d="M209.6,226c5.6,6,.2,6.1-5.2,6.7l1.1-3c-1.8.2-3.5,3.8-3.8,3.8-1.6,0-3.1-2.3-4.8-2.3l4.8-2.4c.7-.3,1.1-1.3,1.2-1.4,1.1-.5,6.2-1.1,6.7-1.5Z"/>
  <path class="st1" d="M298.7,107.8c1.3,1.9,2.3,4.8,4.5,6.4-4.4,2.1-2.9.8-4.8-1.1s-1.9-.8-2.3-1.5-.2-2.6-.4-2.9-4.1-.6-5.3-1-3.2-1.9-3.6-2.8c.7-.2,2.7.2,3,0,1.7-1.4-1.9-1.3-1.5-2.2.6,0,1.2-.1,1.7.1,2.1.8,6.6,3.8,8.7,5.1Z"/>
  <path class="st1" d="M188.7,131.7c-3.9,0-8-.8-11.2,1.9s-3,3.7-3,4.1c-3.4-.7-4.6-6.6,0-3.7,0-.6-.2-1.6.1-2.1s8.2-3.9,9-3.8,4,1.5,4.3,1.8c.8.6.6,1.7.7,1.8Z"/>
  <path class="st1" d="M142.3,196.9c-.6-2.7,3.3-4.1,3.6-4.6.7-1.3-1-3.9,2-4.3s.6,1.7,1.1,2.2c2.1,1.8,3.7-3,3,6.1-3.4-.4-6.5.3-9.7.7Z"/>
  <path class="st0" d="M74.9,182.6c-.2.1-.5,1.1-.7,1.5-2.2,1-11.8-1.5-12.8-2.8s-.7-1.7-.7-2.5c1.5-2.1,12.6,1.4,14.2,3.7Z"/>
  <path class="st0" d="M268.8,142.2c.5,0,1,0,1.5,0,2.1,0,10-.2,7.4,3.6s-10.7,1.7-11.8,0,.4-3.3.9-3.6,1.5,0,2.1-.1Z"/>
  <path class="st1" d="M154.2,134l-.7,2.2c2.5.6,1.1-1.6,1.5-2.2s2.1-.2,2.6.7c.9,1.5-.2,4.3,1.1,6-2.1-.4-4.3,1.2-6.2,0s-.4-1.3-1.1-1.5-2.2.2-2.4,0c-1-.6,1.6-7.4,5.2-5.2ZM153.1,138.5v.7c.5-.2.5-.5,0-.7Z"/>
  <path class="st0" d="M281.5,159.4c.2.4-.2,1.6,0,2.2,2.6-1.1,4.4-2,7.5-1.5.3,5.4-3.6,3.7-7,4.5s-.7,2.3-2.8,1.5c0-.2,0-.5,0-.7-.2-1.3-.1-1.7-1.5-2.2s-1,0-1.5,0c.1-.1,0-1,.4-1.5s3.2-2.2,3.4-2.3,1.5,0,1.5,0Z"/>
  <path class="st0" d="M256,183.4c.4,1.4-.7,3-.7,4.2s3,2.9,0,4.1c-.8-4.5-3.9.7-4.2.8-2.8.8-3.9-2.7-2.9-4.5s7.1-5.3,7.9-4.5Z"/>
  <path class="st1" d="M268.8,142.2c0-1.5-2.5-3.8-3.7-3-1.4,3.3.7,6.2-3.8,5.2-.6-2.4,2.5-9,4.9-9s2,1.9,3.1,2.2,2.6-.9,4-.6c-1.9,1.7-2.8,2.5-3,5.2-.5,0-1,0-1.5,0Z"/>
  <path class="st1" d="M234.3,179.6c.7,0,1.7-.2,2.2,0,1.5.5,2.1,2.9,2.2,3-1.2,1.3-2.4,1.1-3.7,1.5s-5.8,1.7-6,1.5v-6c1.7,0,3.5-.1,5.2,0Z"/>
  <path class="st1" d="M207.4,220.8c-.5-1.3-1.8-4.4-2.6-5.3s-3.2,0-2.6-2.2c1.9.7,4.1,0,5.5,0s0,2.3,1.9,1.5c.4-5.5,3.5-2.5,2.8,1s-3.6,2.5-2.8,5c-.7,0-1.5,0-2.2,0Z"/>
  <path class="st1" d="M277.7,163.2c0,1.8-.5,2.6,1.5,2.2,0,.2,0,.5,0,.7,0,1,0,2,0,3-1.2,0-2.5,0-3.7,0-3.2.2-6.6,2.2-8.2-1.5,4.8.9,4.2-1,6.3-3s1.7-.6,2.6-1.5c.5,0,1.2-.1,1.5,0Z"/>
  <path class="st0" d="M229.1,98.8c1.5-.4,2.9-.9,4.5-.7,0,7-1.8,3.1-6.2,3.9s-6.9,7-6.5,1.3c2.9-2.2,4.4-3.4,8.2-4.5Z"/>
  <path class="st0" d="M68.9,128.7c2.1.2,3.9-.5,3.7,2.6s-2.2,3.7-4.9,3.5-.6-1-1.3-2-3-1-2-4c1.5,0,3-.1,4.5,0Z"/>
  <path class="st1" d="M189.4,226.8c-1.7-.6-1.5,1.4-2.3,1.8s-1.9.2-2.8.7.6,1.7-2.5.9c-5.4-1.5,2.7-2.5,2.9-2.7s.2-4,0-4.7-1.5-.4-1.5-.9.7-2.4.8-2.5c1.6-1.1,2.9,2.8,5.2,1.5,0,.7,0,1.5,0,2.2l-3.7.4c0,2,2.2,2,3.7,1.9,0,.5,0,1,0,1.5Z"/>
  <path class="st0" d="M172.2,119c2.2-.4,1.6,1.2,1.5,2.6-.3,6.4-2.4,5.2-8.3,5.6l5.2-7.5c.4-.6,1.4-.6,1.5-.7Z"/>
  <path class="st1" d="M121.3,138.5c0,2.1,1.4,6.8,0,8.5s-3.6.6-4.6,1.9l.9-7.7,3.6-2.8Z"/>
  <path class="st1" d="M220.9,220.8c.9,2.5-1.9,2.4-2.2,3.5s1.2,3.5.7,4-5.7.9-6.7.7c-.5-2,2-2,2.6-3s-.6-3.3.3-4.5c1.5-.4,3.6-.4,5.2-.7Z"/>
  <path class="st0" d="M105.4,149.9c.9.7.8,3.7,0,4.2s-6.5-.2-8.1,0c-1.5-3.7,5.9-6.1,8.1-4.3Z"/>
  <path class="st1" d="M172.2,234.3c-.6.2-1.6-.2-2.2,0l-2.6-6c4.7,0,13.8,3.2,4.9,6Z"/>
  <path class="st1" d="M271.8,124.3c4.2-2.6,8.9,3.1,3.4,3.8s-7.7-1.9-3.4-6v2.3Z"/>
  <path class="st0" d="M112.9,120.7c.2,0,.2.8.5,1,.8.5,1.7.1,2,.3,2.4,1.1-6.1,6.3-8.2,3.7-1-1.4,3.2-6.5,5.8-5Z"/>
  <path class="st1" d="M247.8,211.1c.6-2.8-.9-4.5-1.5-7,4-2.8,2.4-.2,3.8,1.4s3,1.2,2.2,4.9c-1.5.3-3,.5-4.5.7Z"/>
  <path class="st1" d="M172.2,207.3c.2-8.3,4.4-2.9,9-1.1-1.3,4.3-5.6-1.4-9,1.1Z"/>
  <path class="st1" d="M128.8,153.5c-4.6,6.6-7.4,3.1-6.7-3.7,2.4,1.1,3.9,3.8,6.7,3.7Z"/>
  <path class="st1" d="M108.5,138.4c-1.8.5-3.3.8-5.2,0,.7-.9,2-5.8,2.3-6,2.7-1.9,3.7,4,2.9,5.9Z"/>
  <path class="st1" d="M262,101.8v3c-.4,0-.9.8-2.2.7s.1-.6-1.1-.7c-2.1-.2-4.7.9-4.1-1.5,1.4.2,2.5.1,2.2-1.5,1.6-.1,3.9.3,5.2,0Z"/>
  <path class="st1" d="M181.9,219.3c-1.8-.2-6.2.7-7.1-.7s-.5-2.1-.3-2.3c.6-.6,8.4-.4,7.5,3Z"/>
  <path class="st0" d="M104.1,119c.5,1.8-1.4,1.6-2,2.5-1.3,1.7,0,3.6-4.7,2.8-.9-.8,4.6-6.7,6.7-5.2Z"/>
  <path class="st1" d="M120.6,127.2c-.9-.5-3.8,1.1-3-1.5,1.8-.2,7.1-7.4,6.7-1.5-1.3.9-2.6,1.9-3.7,3Z"/>
  <path class="st1" d="M116.1,140.7c-.4.4-2-.2-2.7-.7-2.8-2.3.4-7.7,2.3-4.5s.5,5,.3,5.2Z"/>
  <path class="st0" d="M105.6,120.5c.4-3.6,3.1-4.3,6-5.2.9,3.6-3,4.7-6,5.2Z"/>
  <path class="st0" d="M245.7,200.4c-.3-.4,0-1.6-.3-1.9-.6-.6-2.4.6-2.1-.9,3,.6,4.8,1.3,7.5-.8,1.6,4.1-3.4,6-5.1,3.5Z"/>
  <path class="st1" d="M295.7,143c1.9,2.9-4.6,5.2-5.2,4.5s0-1.8,0-2.2.2-.6.7-.7c3.7-.7,1.6-1.1,2.2-1.5s1.6.1,2.2,0Z"/>
  <path class="st0" d="M95.9,224.6c2.1-.4,4.6-.7,6.7-.7l-6.4,4.5c-2.2.4-.3-2.3-.4-3.7Z"/>
  <path class="st0" d="M253.8,171.4c0,.5,0,1,0,1.5,0,1.5,0,3,0,4.5-3.9-.3-4.2-5.5,0-6Z"/>
  <path class="st1" d="M292,134.7l-4.4-2.3v-2.9c2.8-.3,4.9,2.4,4.4,5.2Z"/>
  <path class="st1" d="M94.4,222.3c1.1.3,1.5,1.1,1.5,2.2-1.1.2-5,1.8-5.2,1.5s1.1-2.6.7-3c.8-.8,2.3-.5,3-.7Z"/>
  <path class="st1" d="M250.1,110c-2.4.5-1.3-1.7-1.5-3.7,1.6,0,4.2.2,3.7,2.2-.1,0-2.1,1.4-2.2,1.5Z"/>
  <path class="st0" d="M238.8,182.6c.1.1,1.5-.4,1.6.5s-.7,1.9-.8,2.5c-1.9.3-4.7,1.4-4.5-1.5,1.3-.4,2.6-.2,3.7-1.5Z"/>
  <path class="st0" d="M134,235c1.8,1.6-4.4,2.7-5.2,2.2-1.9-3,4.9-2.6,5.2-2.2Z"/>
  <path class="st0" d="M192.4,303.9c2.4,2-6.2,1.5-6.7,1.5-2.4-2,6.2-1.5,6.7-1.5Z"/>
  <path class="st0" d="M257.5,173.7c4.7-.3,1.5,2.7-.4,3.7-2,.4-.8-1.9-1.1-3,.8,0,1.1,0,1.5-.7Z"/>
  <path class="st0" d="M243.3,274.7c-.2-1.4,0-2.2,1.1-3,4.3.2,2.9,3.7-1.1,3Z"/>
  <path class="st1" d="M190.2,205.1c-.1,1.3-3.1,5-4.5,3.7s2.8-4.6,4.5-3.7Z"/>
  <path class="st0" d="M234.3,179.6l4.1-3-1.9,3c-.5-.2-1.6,0-2.2,0Z"/>
  <path class="st1" d="M163.2,246.3c1.1.6,1.2-1.3,2.2,1.5-1.7,3.8-6.4-1.4-2.2-1.5Z"/>
  <path class="st0" d="M169.8,262.1c.4.3,2.1,3.8,1.6,4.3-1.5-1.4-5-2.3-3.4-4.5.6,0,1.2-.2,1.7.2Z"/>
  <path class="st1" d="M83.9,221.6v3c-5.4-.4-2.8-2-3-2.2.8-.8,2.4-.5,3-.7Z"/>
  <path class="st0" d="M229.8,269.5c.4.4-.1,2.6-1.1,3-4,1.5-.2-4.3,1.1-3Z"/>
  <path class="st1" d="M277.7,101.8c0,0-.9-.3-.6-.6,1-1.1,2.8-2.1,4.4-1.6l-1.5,2.2c-.7-.1-1.5,0-2.2,0Z"/>
  <path class="st0" d="M185.7,264.2c-2.7,4.9-2.5,1.1-3,.7l.5-.6h2.5Z"/>
  <path class="st0" d="M253,178.9v.7c-5.3,3.3-6.2-1.4,0-.7Z"/>
  <path class="st1" d="M202.1,261.2c.8.8-.7,2.3-1.5,1.5s.7-2.3,1.5-1.5Z"/>
  <path class="st1" d="M77.9,215.6c0,0-.8,1.6-.8.4s.7-1,.8-1.1v.7Z"/>
  <path class="st1" d="M247.8,110c.5.3-.4,1.3-1.5.7s.4-1.3,1.5-.7Z"/>
  <path class="st0" d="M291.8,181.3c.4.4,1.1,4.2.9,4.3-3.8,1.5-9.8,0-13,.7s.6,5,.3,5.3c-1.5.2-2.7-.7-4.1-.8s-2.3.6-3.3.4c3-1.1,3-5.3,4.9-7.1s7-3.8,9-3.8,4.9.4,5.5,1Z"/>
  <path class="st0" d="M127.1,103.9l-4.3-.2c2-.7,2.6-4.1,3.2-4.7s3.4-1.9,3.9-1.7c3.9,1.5-2.2,5-2.8,6.6Z"/>
  <path class="st2" d="M110.8,97.3c3-.5,4.5-1.9,5.2,1.5-1.4.2-4.1.8-5.2,1.5v-3Z"/>
  <path class="st2" d="M225.3,117.5c.3,1.2-1,.4-1.3.9-.7.9.6,3-.9,2.9v-4.5s2.2.8,2.2.8Z"/>
  <path class="st2" d="M150.9,110c.5.2.5.5,0,.7v-.7Z"/>
  <path class="st2" d="M301.7,185.6c1.2-4.8.7-5,.7-9.4,0-2.9,2.2-6.3,4.9-7.1s-.2,2.7,1.1,3c-2,3.6-3.1,7.6-4.7,11.4s-.1,2.5-2,2.1Z"/>
  <path class="st2" d="M301,187.9c-.6,1.7-.9,5-3,4.5.5-1.9.5-4.6,3-4.5Z"/>
  <path class="st2" d="M310.7,166.2c-3.8.5-2.4-1.7,0-3-.1,1,.1,2.1,0,3Z"/>
  <path class="st1" d="M269.5,218.6c.2.7,3.1,2.9,3.7,3.7.8-1.4-1.8-7.3-1.5-7.5s1.3.3,2-.2.5-1.5,1.5-1.9c1.8-.8,5.7-.8,7.7-.9,1.6,1.6-7.5,15.1-9.4,16.4s-8.6,2.1-11.5,3.4-2.7,2.4-4.1,2.7-3.4-4.6-5.6-4.5c.9-2,1.9-4.5,3.7-5.7v-1c.7-.1,1.6.1,2.3,0-.2,2.8,2.1,2.1,1.5-.7.9-.2,2.2.2,3,0,1.2,1.4,1.8,1,1.5-.7.5-.3,1.5-.7,1.5-.7,2.4.6,1.1-1.7,1.5-2.2s1.8,0,2.2,0Z"/>
  <path class="st2" d="M256,223.1v1c-1.8,1.3-2.8,3.7-3.7,5.7s-1.2,1.6-.7,3c-4.1-.5-5.7-.7-6,3.7.2.3,4.9-.3,3,1.5s-1.9,0-2.8.6-5.6,3.8-6,3.9c-1.6.4-3.8-.2-5.5,0,0-1,0-2,0-3s.5-1.5.7-2.2c-.6-.5-5.5,1.8-6.7.4,1.9-2,6.4-.3,6.7-4.1,2,0,4.3-.8,3.7,1.5-.6.3-3.5,1.6-3,2.2l3.4,1.5.4-3.7c2.1-1.1,4.6-2.1,2.3-4.9s-7.7.3-8.3,3.4c-.9,0-2.5.4-3-.4,2.5-2.8,4.8-5,8.7-5.6s4.2.3,5.8,0,.6-1.4.9-1.5c3.1-1,1,3.2,3,2.2s3.2-1.5,3.3-1.6c1.3-1.6-2.4-2.4,3.8-3.6Z"/>
  <path class="st2" d="M228.3,244c0,.1.2.8-.2,1.3-1.3,1.7-11.9,8-13.8,8.2s-1.9-.7-2.8-.4c-1.9.5-.8,4.8-5.7,1.4-1.5-2,8.8-4.2,2.2-6,.3-.3-1.1-1.9,2.5-1.4s2.8,2.2,3.1,2.2c1.6,0,5.9-2.7,7.5-3.8l.7,1.5c1.7-1.6,3.9-3,6.4-3Z"/>
  <path class="st2" d="M206.6,248.5c-3.4.7-5.2,3.7-7.4,4.9-4.8,2.6-14.5,5-19.5,4.8,4.4-2.5,9.6-3,14.2-4.9s8.5-5.6,12.7-4.9Z"/>
  <path class="st1" d="M239.6,235c-.2.1-.6-.1-.7,0,.6-2.3-1.7-1.4-3.7-1.5s-1,0-1.5,0c.6-3.1,6.1-6.1,8.3-3.4s-.2,3.8-2.3,4.9Z"/>
  <path class="st2" d="M189.4,223.1c0,.7,0,1.5,0,2.2-1.6.2-3.7.1-3.7-1.9l3.7-.4Z"/>
  <path class="st2" d="M267.3,218.6c.3-.3.2-2.7,1.9-2.3.8,0,.2,1.6.4,2.3-.5,0-2.2-.1-2.2,0-.3.6.9,2.9-1.5,2.2.2-.4-.4-1.6.2-2.1s1.2,0,1.3-.2Z"/>
  <path class="st2" d="M259.8,222.3c.6,2.8-1.7,3.5-1.5.7.2,0,.8-.6,1.5-.7Z"/>
  <path class="st2" d="M264.3,221.6c.3,1.7-.3,2.1-1.5.7,0,0,1.3-.6,1.5-.7Z"/>
  <path class="st2" d="M176.7,258.2c.3,1.7-.3,2.1-1.5.7,0,0,.1-.6,1.5-.7Z"/>
  <path class="st2" d="M227.2,238c.5.2.5.5,0,.7v-.7Z"/>
  <path class="st1" d="M247.1,128.7c1.4-2.4,4.5-5.2,6.3-7.5s1.3-3.1,2.2-3.8c1.6-1.1,3.5-.3,4.9-1s1.9-5.7,5.2-5.6c.7-1.2-5.2-.3-3-2.2s4-1.5,4.2-1.5c7.3-1.1,1.5,8.3,1.8,11.9-8.7-.4-11.2,3.7-16.4,9s-2.2.2-2.2,2.2c4.4,1.4,2.9-.6,3.7-1.5,1.9-1.8,12.1-7.8,10.5-1.2s-1.6.8-2.2,1.7-.5,2-.8,2.5c-1.5.3-3.2,1-4.5,1.9-4.7,3.6-4.6,7.8-7,10.6s-5.7,3.3-8.6,6.7-2.2,1.6-.2,2.5c-7.2,6.2-12.6,8.7-22.1,12s-7.1,1.4-9.6,2.4-4.1,2.8-7.3,4.3v-2.2c2.1-1.9,4.5-4.2,6.7-6s4.4-3.7,6.3-6.1.7-2.7,1.9-3.4,2.6.5,3.3.4c1.9-.3.4-2.7.6-3.9.5-3.6,5.9-5.3,3.6-8.8.5-.3,3.6-2.1,3.7-2.2,5.8-.4,7.5-.5,6.7,6,1.1-.2,7.2-.5,7.5-.8s-.5-5.5,1-6.6,2.4.8,2.5-2.9-1-3.6,1-7Z"/>
  <path class="st1" d="M220.9,132.5c.2-.2,5.3-2.2,5.6-2.3s1.1,2,1.1,2.3c0,1.1-2.9,5.5-3.8,6.3-2.7,2.4-7.1,5.3-10.4,5.7,0-1.2,0-2.5,0-3.7s-.1-1.1,0-1.5c1.8,0,2.6.5,2.2-1.5.1,0,0-.5,0-.7,3.2.5,1.9-.9,2.2-1.5.5-.9.6-1,1.5-1.5,2.1-1.3.9-.9,1.5-1.5Z"/>
  <path class="st2" d="M224.6,142.2c2.2,3.5-3.1,5.2-3.6,8.8s1.3,3.6-.6,3.9-1.9-1.1-3.3-.4-1.2,2.5-1.9,3.4c-1.9,2.4-4.1,4.3-6.3,6.1,1.4-1.3.8-4.8,1.1-5.2s4.1-3.2,4.2-3.5c.1-1.1-.7-2.4-.4-3.3s4.4-5.1,5.1-5.7,1.7-.3,2.4-1c2.2-2.2-.3-1.1,3.4-3Z"/>
  <path class="st2" d="M247.1,128.7c-2,3.4-.9,4-1,7s-1.6,2.2-2.5,2.9c-1.5,1.1-.7,6.4-1,6.6s-6.3.6-7.5.8c.8-6.4-.9-6.4-6.7-6,.1-.1,0-1.7,1.2-2.1s3.3-.3,4.3,0,.4,1.3,1,1.5c1,.3,2.4-.3,3.3.3s-.2,3.4,2.2,2.7c.2-1.1.3-3.1.7-4s2.1,0,3.1-2.3-2.6-6.9,2.9-7.1Z"/>
  <path class="st2" d="M261.3,131.7c-3.2,5.8-12.1,16.3-17.3,20.6s-2.7,1-3,1.1c-2-.9-.5-1.7.2-2.5,2.9-3.4,7.4-5.3,8.6-6.7,2.4-2.8,2.3-7,7-10.6s2.9-1.6,4.5-1.9Z"/>
  <path class="st2" d="M220.9,132.5c6.3-5.6,8.6-4.4,15.7-7.1s7.1-5.1,8.2-6,.4-1.6,1.1-1.8c1.3-.4,1.5,1,1.1,1.5s-1.1.1-1.7.8c-3.2,3.4-8.3,8.6-12.2,11s-3.4,1.8-5.5,1.6c0-.2-.8-2.3-1.1-2.3s-5.4,2-5.6,2.3c-.6.6.6.2-1.5,1.5-.5-2,1.3-1.3,1.5-1.5Z"/>
  <path class="st2" d="M262,101.8c1.2-.3,5.1-3.3,6.4-3.7,2.1-.6.7,2.6,1.1,3s3-.5,3,.4c-3.5,1.3-6.7,2.7-10.5,3.4v-3Z"/>
  <path class="st2" d="M256,162.4c-4.4-.2-5.9-4.3-5.2-8.2,1.1-1.2,6.8,6.2,5.2,8.2Z"/>
  <path class="st2" d="M208.1,127.2c1.2-.9,3.7,5,3.7,5.6s-.7,1-.7,1.1c-1.5-2-2.4-4.3-3-6.7Z"/>
  <path class="st2" d="M213.4,140.7c0,1.2,0,2.5,0,3.7-.3,0-1.2,1.2-2.2.7v-4.5s2.2,0,2.2,0Z"/>
  <path class="st2" d="M198.4,174.4c.2,1.2-1.3.6-1.9,1.5s.2,2.4-1.1,2.2l-1.5-4.5,4.5.8Z"/>
  <path class="st2" d="M252.3,128l1.5.7c-.9.9.6,2.9-3.7,1.5,0-2.1,2.1-2.1,2.2-2.2Z"/>
  <path class="st2" d="M202.1,172.2c-.3.2-1.2,2.3-3,1.5.7-1.5,1.8-2.6,3-3.7v2.2Z"/>
  <path class="st2" d="M259,113c-.7,2.4-1.2,2.6-3.7,2.2-.5-.4,3-2.9,3.7-2.2Z"/>
  <path class="st2" d="M207.4,144.5c-.7,1-.8,2.4-2.2,3,.4-2.2-1.3-3.5,2.2-3Z"/>
  <path class="st2" d="M217.9,135.5c-.4.6.9,2-2.2,1.5.4-1.2-.9-1.8,2.2-1.5Z"/>
  <path class="st2" d="M215.6,137.7c.3,2-.5,1.5-2.2,1.5.5-1.7,1.8-1.2,2.2-1.5Z"/>
  <path class="st2" d="M184.9,152.7c1.9.2,4-.1,6,0-.9,2.2-3.3,2.1-5.2,2.2l-.7-2.2Z"/>
  <path class="st2" d="M147.3,158.1c2.8,4.2-5.7.5-3.6-1.6s3.4,1.4,3.6,1.6Z"/>
  <path class="st0" d="M191.7,151.2c-.5-.2,2.3-1.9,2.6-3l.4.4c-1.1,1.1-1,3-3,2.6Z"/>
  <path class="st2" d="M144.5,211.8c1.1-1.9,2.2-4,3-6-1.3-1.1-7.9,4.6-9.4,5.2s-1.4-1-1.1-1.9,4.3-2.4,5.2-3c1.9-1.3,3.9-5.4,4.9-1.8l3.4-1.5c-.8,1.7-1.6,2.6-2.3,4.1-1.6,3.4.9,3.8-3.7,4.9-1.6,2.6-2.3,3.9-5,5.9s-16,8.9-18.2,9.1-2,0-3,0c-1.3-1.1,8.9-4.8,9.5-5.1,1.8-.9,4.8-2.8,6.2-3.9s.2-.8.8-1.1c.9-.5,3.6-.2,2.1-2.6s-1.7-.4-2.2-.8c.2-.2-.5-1.5.4-1.6,3.2,0,5.3,1,9.3,0Z"/>
  <path class="st1" d="M134.8,213.3c.4.4,2.1.6,2.2.8,1.5,2.4-1.2,2-2.1,2.6s-.6,1-.8,1.1c-1.8.6-5.4,1.2-4.5-1.9s4-1.2,5.2-2.6Z"/>
  <path class="st2" d="M126.5,218.6c-1,.2-4-.4-4.4,0s.5,3-1.2,2.2-2.4-2.3-1.9-3c2.4-.6,6.9-3.6,7.5.7Z"/>
  <path class="st2" d="M122.1,205.8c2.1-.2,3.7,1.4,5.2,2.6-3.5,4.7-4.8,2.1-5.2-2.6Z"/>
  <path class="st2" d="M85.4,214.1c.5,1.4-1.1,4-2.6,3.7-2.7-3.4-1.1-4.3,2.6-3.7Z"/>
  <path class="st2" d="M120.8,209.3c.3.3,2.6.6,1.2,1.8s-5-.3-2.2-2.6.5.3,1,.8Z"/>
  <path class="st2" d="M116.1,232h-.7c-.4-6.1,1.1-6.1.7,0Z"/>
  <path class="st2" d="M115.3,235.8h-.7c-.4-4.1,1.1-4.1.7,0Z"/>
  <path class="st2" d="M83.1,207.3c.2,0,1.7-2.2,1.5.7-.6-.2-1.2,0-1.5-.7Z"/>
  <path class="st2" d="M88.4,173.7c1,1.7-3.8,2.3-5.2,2.2-.6-2.3,3.4-2,5.2-2.2Z"/>
  <path class="st2" d="M92.1,172.2c.2,1.9,0,1.4-1.5,1.5-.4-2.2.9-1.2,1.5-1.5Z"/>
  <path class="st2" d="M232.8,170.7c1,1-1.3,4.4-2.2,1.9s1.7-2.4,2.2-1.9Z"/>
  <path class="st2" d="M297.2,160.9c-1.8.7-2.3-2.8-2.2-4.1s.7-1.1.7-1.2c.9,1.3,1.3,3.7,1.5,5.2Z"/>
  <path class="st2" d="M298,173.7c0,1,2.4,3.4-.7,3,0-.8,0-1.7.1-2.5l.6-.5Z"/>
  <path class="st2" d="M297.2,178.1c.1.8,2.3,2.6-.7,2.2,0-.8-.2-1.9.7-2.2Z"/>
  <path class="st2" d="M91.4,131.7c.6-2.6,2.6-3.9,5.2-2.6l-5.2,3.4c0-.2,0-.5,0-.7Z"/>
  <path class="st2" d="M100.7,133.2c.5.2.5.5,0,.7v-.7Z"/>
  <path class="st2" d="M293.5,143c-.6.4,1.4.8-2.2,1.5.3-1.1,1.1-1.5,2.2-1.5Z"/>
  <path class="st2" d="M153.1,138.5c.5.2.5.5,0,.7v-.7Z"/>
  <path class="st2" d="M279.2,165.4c-2,.3-1.5-.5-1.5-2.2,1.3.6,1.3.9,1.5,2.2Z"/>
  <path class="st0" d="M239.6,235l-.4,3.7-3.4-1.5c-.5-.7,2.4-1.9,3-2.2s.6.1.7,0Z"/>
</svg>